<?xml version="1.0" encoding="UTF-8"?>
<svg xmlns="http://www.w3.org/2000/svg" xmlns:xlink="http://www.w3.org/1999/xlink" width="200px" height="195px" viewBox="0 0 200 195" version="1.1">
<g id="surface1">
<path style=" stroke:none;fill-rule:nonzero;fill:rgb(0%,0%,0%);fill-opacity:1;" d="M 98.667969 9.585938 C 90.398438 13.21875 72.398438 25.203125 69.800781 28.671875 C 68.132812 30.984375 66.667969 35.941406 66.667969 39.246094 C 66.667969 43.460938 68.132812 46.4375 71.464844 49.164062 C 76.398438 53.128906 77.332031 54.535156 77.332031 58.003906 C 77.332031 59.65625 77.800781 62.546875 78.398438 64.367188 C 79.332031 67.257812 79.332031 68.003906 78.398438 71.96875 C 77.066406 77.503906 77.066406 82.542969 78.398438 86.675781 C 79.734375 90.808594 79 92.707031 75.464844 94.03125 C 71.867188 95.433594 70.332031 97.746094 64.933594 110.554688 C 59.933594 122.535156 60.601562 121.542969 49.066406 133.441406 C 46 136.664062 37.867188 142.117188 36.199219 142.117188 C 33.800781 142.117188 27.601562 154.59375 25.601562 163.519531 C 24.535156 168.3125 24.535156 168.640625 25.667969 170.210938 C 27.132812 172.195312 27.867188 171.699219 29.066406 167.980469 C 29.601562 166.492188 30.734375 164.839844 31.667969 164.429688 C 32.601562 164.015625 33.933594 162.113281 34.734375 160.132812 C 38.132812 151.703125 42.667969 144.347656 43.734375 145.671875 C 44.398438 146.496094 41.667969 154.347656 39.933594 156.414062 C 37.867188 158.890625 36.398438 164.015625 37.265625 165.832031 C 37.601562 166.660156 38.132812 165.503906 38.933594 162.03125 C 39.535156 159.222656 40.398438 156.992188 40.800781 156.992188 C 41.535156 156.992188 41.398438 157.902344 39.734375 164.59375 C 38.867188 168.0625 38.867188 168.558594 39.667969 168.558594 C 40.199219 168.558594 40.667969 169.054688 40.667969 169.632812 C 40.667969 170.210938 41.265625 171.121094 41.933594 171.617188 C 42.933594 172.441406 43.398438 172.359375 44 171.453125 C 45.265625 169.632812 45.800781 169.964844 46.332031 172.855469 C 46.800781 175.085938 46.933594 174.261719 47.398438 168.144531 C 48 159.882812 50.199219 147.160156 50.867188 148.398438 C 51.066406 148.894531 51 150.710938 50.667969 152.53125 C 48.800781 162.609375 48.332031 178.226562 50 173.105469 C 50.332031 172.195312 50.601562 170.046875 50.601562 168.3125 C 50.667969 164.015625 52 164.429688 52 168.808594 C 52 171.367188 52.398438 172.855469 53.332031 173.929688 C 55.398438 176.242188 56.667969 174.34375 56.667969 168.640625 C 56.601562 160.378906 55.132812 155.503906 52.933594 156.496094 C 52.535156 156.660156 52.199219 156.082031 52.265625 155.089844 C 52.464844 150.050781 56 154.761719 61.066406 166.988281 C 62.734375 170.957031 64.667969 174.839844 65.464844 175.664062 C 67.199219 177.648438 67.132812 177.402344 62.667969 166.578125 C 60.667969 161.703125 57.332031 155.171875 55.199219 152.117188 C 52.066406 147.40625 51.132812 146.496094 49.398438 146.496094 C 47.535156 146.496094 47.199219 146.910156 46.066406 150.710938 C 44.464844 156.164062 43.066406 166.410156 43.601562 169.054688 C 43.933594 170.625 43.800781 171.121094 43.199219 170.789062 C 41.265625 169.964844 43.332031 152.035156 45.867188 147.078125 C 46.464844 145.917969 47 144.761719 47 144.515625 C 47 144.183594 48.199219 142.695312 49.667969 141.210938 C 51.199219 139.640625 53.265625 137.328125 54.332031 136.085938 C 55.464844 134.847656 57.933594 132.453125 59.933594 130.714844 L 63.535156 127.660156 L 65.066406 130.136719 C 71.199219 139.96875 75.667969 147.738281 78.933594 154.265625 C 81 158.480469 83.398438 162.363281 84.132812 162.859375 L 85.535156 163.765625 L 84.132812 161.039062 C 83.398438 159.46875 81.601562 155.835938 80.265625 152.941406 C 78.066406 148.316406 73.734375 140.796875 66.398438 128.734375 C 63.867188 124.765625 63.601562 123.941406 64.601562 123.941406 C 65.398438 123.941406 78.535156 146.167969 81.667969 152.859375 C 83.066406 155.835938 84.800781 159.140625 85.464844 160.214844 C 86.535156 161.949219 86.667969 161.949219 86.667969 160.628906 C 86.667969 157.734375 79.398438 143.769531 68.867188 126.503906 C 67.667969 124.519531 66.667969 122.371094 66.667969 121.710938 C 66.667969 120.46875 71.332031 108.738281 72.800781 106.339844 C 73.667969 104.855469 73.800781 104.855469 75.332031 106.421875 C 76.265625 107.332031 78.535156 108.984375 80.332031 110.140625 C 88.464844 115.183594 104.265625 132.285156 109.332031 141.375 C 115.464844 152.363281 127.601562 172.03125 130.867188 176.160156 C 131.464844 176.988281 132.265625 177.648438 132.667969 177.648438 C 133.464844 177.648438 130 171.453125 124.601562 163.1875 C 122.535156 159.964844 117.933594 152.363281 114.332031 146.25 C 110.800781 140.136719 106.332031 133.113281 104.398438 130.714844 C 98.800781 123.527344 86.332031 111.382812 80.800781 107.828125 C 78 106.011719 75.601562 103.945312 75.464844 103.203125 C 75.332031 102.457031 76.199219 101.300781 77.667969 100.390625 C 79.867188 98.90625 80.867188 96.671875 79.332031 96.671875 C 77.933594 96.671875 74.332031 98.988281 73.265625 100.472656 C 71.933594 102.457031 64 121.542969 64 122.867188 C 64 123.445312 61.535156 126.171875 58.535156 128.980469 C 55.464844 131.871094 51.867188 135.507812 50.535156 137.242188 C 49.132812 138.894531 46.332031 141.128906 44.265625 142.203125 C 39.867188 144.515625 37.933594 147.324219 34.199219 156.910156 C 31.398438 164.097656 31.464844 164.015625 30.933594 163.355469 C 30.398438 162.777344 33.332031 154.84375 36.398438 148.5625 C 38.464844 144.433594 39.464844 143.191406 43 141.042969 C 45.265625 139.558594 49 136.5 51.199219 134.269531 C 53.332031 131.957031 56.535156 128.816406 58.265625 127.246094 C 60.800781 124.847656 62.066406 122.535156 65.734375 113.613281 C 71.464844 99.648438 72.601562 97.914062 76.800781 96.09375 C 79.398438 94.9375 80.398438 93.945312 81.199219 91.882812 C 82.199219 89.402344 82.199219 89.15625 80.867188 87.667969 C 79.867188 86.511719 79.535156 84.941406 79.398438 81.46875 C 79.265625 75.851562 81 67.753906 82.398438 67.753906 C 83.066406 67.753906 83.199219 68.167969 82.734375 69.160156 C 80.535156 74.613281 80.265625 85.355469 82.265625 87.171875 C 82.800781 87.667969 83.332031 89.15625 83.464844 90.476562 C 83.601562 92.292969 84.066406 93.039062 85.199219 93.203125 C 86 93.367188 86.667969 93.121094 86.667969 92.625 C 86.667969 92.128906 87.398438 91.714844 88.332031 91.714844 C 89.800781 91.714844 90 91.386719 90 88.492188 C 90 85.4375 89.867188 85.1875 87.867188 84.941406 C 86 84.691406 85.464844 84.113281 84.132812 80.726562 L 82.667969 76.84375 L 84.132812 73.539062 C 85 71.804688 86.265625 70.152344 86.933594 70.066406 C 88.867188 69.65625 90.601562 66.101562 92 59.820312 C 93.464844 52.882812 93.734375 56.433594 92.332031 64.449219 L 91.398438 69.820312 L 93.535156 75.191406 C 95.535156 80.3125 96.800781 82.628906 97.601562 82.628906 C 97.800781 82.628906 98.800781 83.453125 99.734375 84.445312 C 104.464844 89.402344 105.265625 91.796875 103.132812 94.195312 C 102.398438 95.105469 101.535156 95.847656 101.199219 95.847656 C 100.265625 95.847656 100.601562 94.195312 101.667969 93.699219 C 102.800781 93.121094 103.066406 90.0625 102 90.0625 C 101.667969 90.0625 101.332031 89.484375 101.332031 88.824219 C 101.332031 88.164062 101 87.585938 100.667969 87.585938 C 100.265625 87.585938 99.199219 86.675781 98.265625 85.519531 C 97.398438 84.445312 96.535156 83.535156 96.398438 83.703125 C 96 83.949219 93.667969 80.066406 92.265625 76.84375 C 90.933594 73.621094 90.867188 73.457031 90.734375 70.976562 C 90.667969 69.488281 90.464844 69.40625 89.667969 70.234375 C 89 70.894531 88.734375 72.546875 88.867188 75.6875 C 88.933594 78.164062 89.199219 80.148438 89.535156 80.148438 C 89.800781 80.148438 90 80.726562 90 81.386719 C 90 84.03125 93.800781 90.890625 95.265625 90.890625 C 95.667969 90.890625 96 91.21875 96 91.632812 C 96 92.128906 96.933594 93.121094 98 93.945312 C 99.066406 94.691406 100 95.683594 100 96.011719 C 100 97.335938 107.667969 105.433594 109.867188 106.421875 C 115.265625 108.820312 122 107.003906 123.933594 102.621094 C 124.265625 101.878906 124.734375 101.464844 125 101.796875 C 125.867188 102.789062 123.199219 106.507812 120.398438 108.242188 C 117.066406 110.222656 114.800781 110.308594 111.535156 108.65625 C 107.867188 106.753906 107.734375 107.085938 110.535156 111.296875 C 112 113.53125 114.066406 117.660156 115.132812 120.636719 C 117.066406 125.839844 117.132812 125.839844 118 123.941406 C 118.464844 122.785156 120.332031 119.726562 122.132812 117.164062 C 123.933594 114.519531 125.199219 111.960938 125 111.546875 C 124.734375 111.050781 125.066406 108.820312 125.667969 106.507812 C 126.332031 104.191406 126.601562 102.128906 126.398438 101.878906 C 126.199219 101.632812 126.800781 100.308594 127.667969 98.988281 C 129.601562 96.179688 130.332031 93.039062 131.667969 82.132812 C 132.667969 73.785156 133 56.683594 132.265625 49.082031 C 131.933594 45.609375 131.535156 44.617188 130 43.460938 C 128.933594 42.71875 127.398438 42.140625 126.535156 42.140625 C 125 42.140625 124.132812 41.644531 118.667969 37.84375 C 115.867188 35.941406 115.464844 35.859375 113 36.933594 C 109.132812 38.585938 104.265625 41.808594 100.066406 45.691406 C 94.535156 50.566406 92.734375 52.882812 91.066406 57.011719 C 87.667969 65.441406 86.667969 66.84375 84.199219 66.929688 C 83.332031 66.929688 81.933594 66.101562 81 65.109375 C 79.601562 63.621094 79.332031 62.632812 79.332031 58.5 C 79.332031 54.203125 79.132812 53.378906 77.535156 51.558594 C 76.464844 50.484375 74.800781 48.914062 73.667969 48.253906 C 69.667969 45.609375 68.667969 43.792969 68.667969 39.496094 C 68.667969 32.058594 70.265625 30.078125 83.667969 20.90625 C 91.867188 15.285156 100.464844 10.90625 103.667969 10.660156 C 108 10.328125 117.464844 11.566406 120.800781 12.890625 C 123.601562 14.046875 124.066406 14.542969 125.066406 18.011719 C 125.734375 20.160156 126.867188 22.640625 127.667969 23.546875 C 128.398438 24.457031 130.066406 27.019531 131.332031 29.332031 C 133.667969 33.546875 138.132812 39.246094 139.601562 39.910156 C 140.066406 40.15625 141.132812 41.890625 141.933594 43.792969 C 143.535156 47.59375 143.332031 49.742188 141.066406 52.632812 C 140.265625 53.625 138.933594 55.359375 138 56.515625 C 137.132812 57.757812 136 58.664062 135.535156 58.664062 C 134.132812 58.664062 133.867188 60.316406 134.933594 62.382812 C 136.398438 65.191406 137.933594 71.058594 137.199219 71.058594 C 136.867188 71.058594 136.800781 71.390625 137 71.886719 C 137.601562 73.125 137.867188 83.453125 137.265625 83.453125 C 136.933594 83.453125 136.867188 83.949219 137 84.445312 C 137.464844 85.933594 135.132812 90.0625 133.265625 91.21875 C 132.464844 91.714844 131.535156 93.121094 131.265625 94.359375 C 131 95.597656 130.199219 97.664062 129.464844 98.90625 C 128.265625 101.054688 126 109.066406 126 111.050781 C 126 111.546875 126.601562 111.050781 127.265625 109.976562 C 127.933594 108.902344 128.667969 108.324219 128.867188 108.820312 C 129.066406 109.234375 127.132812 112.457031 124.601562 116.089844 C 122.066406 119.644531 119.332031 123.859375 118.601562 125.34375 C 117.132812 128.15625 116 128.898438 116 126.914062 C 116 123.941406 108.667969 115.097656 104.199219 112.703125 C 101.398438 111.132812 99.464844 110.71875 95 110.71875 C 91.933594 110.71875 89.265625 111.050781 89.066406 111.382812 C 88.867188 111.792969 92 115.265625 95.933594 119.230469 C 104.265625 127.410156 108.265625 132.863281 116.132812 146.664062 C 119.265625 152.117188 122.464844 157.488281 123.199219 158.644531 C 124.535156 160.628906 124.535156 160.542969 123.066406 155.503906 C 122.265625 152.613281 121.265625 149.96875 120.867188 149.71875 C 120.535156 149.390625 119.800781 148.234375 119.332031 147.078125 C 118.867188 145.917969 117 142.285156 115.199219 138.894531 C 113.464844 135.507812 112 132.367188 112 132.039062 C 112 129.972656 113.535156 132.203125 116.667969 138.8125 C 120 145.835938 121.535156 147.984375 120.066406 143.6875 C 119.667969 142.613281 119.066406 140.21875 118.734375 138.402344 C 118.199219 135.839844 117.332031 134.433594 115.066406 132.453125 C 112.535156 130.21875 112.132812 129.476562 112.199219 127.082031 C 112.265625 124.4375 112.332031 124.269531 113.800781 125.097656 C 115.132812 125.839844 115.199219 126.171875 114.332031 126.914062 C 112.933594 128.238281 113.132812 129.0625 115.398438 131.210938 C 117 132.863281 117.535156 133.03125 118.332031 132.203125 C 118.867188 131.625 119.332031 130.632812 119.332031 130.054688 C 119.332031 129.394531 119.601562 128.898438 119.933594 128.898438 C 120.398438 128.898438 123.734375 138.566406 124.933594 143.441406 C 125.332031 145.09375 125.332031 145.09375 130.464844 143.109375 C 136.398438 140.714844 137.398438 141.042969 138.199219 146.167969 C 138.601562 148.8125 138.535156 150.132812 137.734375 151.621094 C 137.132812 152.777344 136.667969 154.761719 136.667969 156.082031 C 136.667969 158.066406 136.332031 158.644531 134.734375 159.058594 C 133.667969 159.304688 132.601562 160.132812 132.398438 160.792969 C 131.933594 162.195312 129.066406 162.363281 129.535156 160.875 C 129.667969 160.378906 130.332031 159.964844 131 160.132812 C 131.601562 160.296875 131.933594 160.046875 131.734375 159.554688 C 131.464844 159.140625 132.398438 158.3125 133.667969 157.734375 C 135.464844 156.910156 136 156.164062 136 154.679688 C 136 153.355469 135.734375 152.859375 135.066406 153.109375 C 132.800781 154.183594 128 154.679688 128 153.769531 C 128 153.027344 130.800781 152.445312 133.066406 152.777344 C 133.464844 152.859375 134.199219 152.28125 134.667969 151.621094 C 135.132812 150.960938 135.933594 150.382812 136.464844 150.382812 C 137.199219 150.382812 137.398438 149.804688 137.066406 148.480469 C 136.867188 147.488281 136.667969 145.835938 136.667969 144.761719 C 136.667969 142.449219 136.132812 142.449219 130.199219 144.761719 L 125.398438 146.664062 L 125.800781 150.382812 C 125.933594 152.445312 126.535156 156 127.066406 158.394531 C 128.132812 163.355469 128.199219 164.179688 127.398438 163.105469 C 127.066406 162.691406 126.132812 158.480469 125.332031 153.6875 C 123.066406 140.632812 120.800781 132.203125 119.601562 132.78125 C 118.464844 133.277344 118.464844 133.441406 119.601562 137.574219 C 120.132812 139.390625 121.800781 145.753906 123.265625 151.703125 C 125.601562 160.957031 126.535156 163.355469 129.734375 168.640625 C 134.535156 176.574219 134.933594 177.070312 134.398438 173.847656 C 134 171.535156 134.132812 171.203125 136.800781 169.714844 C 140.464844 167.734375 141.800781 164.59375 140.601562 160.957031 C 140.132812 159.636719 139.734375 155.257812 139.667969 151.207031 C 139.667969 146.167969 139.265625 143.441406 138.535156 142.035156 C 138 140.878906 137.265625 138.070312 137 135.671875 C 136.734375 133.359375 136 130.46875 135.265625 129.394531 C 133.464844 126.585938 133.667969 125.675781 136.734375 120.386719 C 138.601562 117 139.867188 115.679688 140.933594 115.679688 C 143.066406 115.679688 152.066406 125.511719 155.601562 131.625 C 159.066406 137.738281 161.867188 144.515625 164.199219 152.445312 C 167.867188 165.007812 168.734375 167.566406 169.601562 167.980469 C 170.199219 168.3125 169.667969 165.667969 168.199219 160.460938 C 161.933594 138.484375 159.601562 133.359375 151.464844 123.28125 C 148.066406 119.148438 144.132812 114.933594 142.800781 114.027344 C 141.066406 112.867188 140.734375 112.457031 141.667969 112.457031 C 143.667969 112.457031 145.332031 113.859375 151 120.222656 C 158.464844 128.566406 163.265625 138.152344 167.265625 152.695312 C 168.464844 156.910156 170 161.949219 170.667969 163.847656 C 172.734375 169.632812 172.265625 164.511719 170 156 C 165.265625 138.484375 160.132812 128.070312 151.464844 118.15625 L 145.332031 111.214844 L 146.667969 109.480469 C 147.398438 108.488281 148 107.167969 148 106.421875 C 148 105.761719 145.332031 102.292969 142 98.738281 L 136.066406 92.292969 L 137.800781 88.660156 C 139.398438 85.1875 139.464844 84.691406 139.066406 76.265625 C 138.867188 71.390625 138.332031 66.019531 137.867188 64.285156 C 137.132812 61.226562 137.199219 60.980469 139.464844 58.003906 C 143.199219 53.046875 144.667969 50.320312 144.667969 48.171875 C 144.667969 45.03125 142.398438 40.40625 138.535156 35.859375 C 133.800781 30.160156 128.066406 21.070312 126.535156 16.773438 C 124.464844 10.988281 121.265625 9.585938 108.332031 8.675781 C 103.132812 8.34375 101 8.511719 98.667969 9.585938 Z M 119.800781 41.3125 C 121.734375 42.636719 124.199219 43.792969 125.265625 43.792969 C 128.601562 43.792969 130.066406 46.023438 130.464844 51.890625 C 130.867188 57.261719 130.535156 57.839844 128.066406 56.1875 C 127.398438 55.773438 125.199219 55.691406 123.265625 55.9375 C 118.667969 56.597656 115.601562 59.90625 116.332031 63.457031 C 116.601562 64.695312 117.332031 68.992188 118.066406 73.042969 C 119.464844 81.304688 119.199219 82.628906 116.199219 81.304688 C 114.800781 80.726562 114.332031 79.984375 114.332031 78.246094 C 114.265625 75.933594 113.132812 74.363281 111.535156 74.363281 C 110 74.363281 106.667969 78.660156 106.667969 80.5625 C 106.667969 82.542969 109.332031 85.683594 112.332031 87.253906 C 113.464844 87.832031 113.332031 87.996094 111.332031 88.246094 C 110.066406 88.410156 108.398438 89.238281 107.601562 90.144531 L 106.199219 91.796875 L 105.332031 89.320312 C 104.867188 87.914062 103.132812 85.4375 101.398438 83.703125 C 97.667969 79.902344 97.066406 79.074219 95.265625 74.53125 C 93.933594 71.140625 93.867188 70.5625 94.667969 62.546875 C 95.265625 56.019531 95.800781 53.707031 96.933594 52.136719 C 100.066406 47.839844 112.199219 38.835938 114.933594 38.835938 C 115.667969 38.835938 117.800781 39.910156 119.800781 41.3125 Z M 128 58.582031 C 128 58.996094 128.601562 59.492188 129.332031 59.738281 C 132.132812 60.648438 130.464844 61.558594 126.066406 61.558594 C 120.199219 61.558594 118.066406 63.375 123.734375 63.539062 C 128.199219 63.621094 130 64.203125 130 65.441406 C 130 66.019531 129.667969 65.9375 129 65.277344 C 127.933594 64.203125 126.667969 64.78125 126.734375 66.347656 C 126.734375 67.09375 126.867188 67.011719 127.132812 66.265625 C 127.464844 65.191406 128.667969 65.6875 128.667969 67.011719 C 128.667969 67.421875 126.734375 67.753906 124.398438 67.753906 L 120.132812 67.753906 L 120.800781 70.730469 C 121.132812 72.382812 121.265625 74.445312 121.132812 75.355469 C 120.933594 76.265625 121.265625 77.585938 122.066406 78.578125 C 122.734375 79.40625 123.332031 80.480469 123.332031 80.972656 C 123.332031 82.296875 119.265625 87.585938 118.601562 87.089844 C 118.265625 86.839844 118 87.089844 118 87.503906 C 118 89.070312 117 88.492188 116.332031 86.511719 C 115.867188 85.269531 115.066406 84.691406 113.667969 84.609375 C 111 84.609375 110 83.785156 110 81.554688 C 109.933594 79.734375 109.933594 79.734375 109 81.304688 C 108 82.875 108 82.875 108 81.140625 C 108 80.066406 108.535156 79.074219 109.199219 78.742188 C 109.800781 78.496094 110.867188 77.667969 111.535156 77.007812 C 112.398438 76.015625 112.867188 75.933594 113.464844 76.679688 C 114 77.339844 113.734375 77.835938 112.398438 78.496094 C 111.066406 79.074219 110.601562 79.816406 110.800781 81.222656 C 110.933594 82.710938 111.535156 83.121094 113.800781 83.535156 C 115.332031 83.785156 117 84.363281 117.464844 84.941406 C 118.265625 85.683594 118.800781 85.4375 120.265625 83.535156 C 122.066406 81.222656 122.132812 78.496094 120.332031 78.496094 C 119.800781 78.496094 119.464844 77.835938 119.464844 77.007812 C 119.535156 76.265625 119.332031 72.132812 119.066406 68.003906 C 118.601562 61.804688 118.734375 60.234375 119.398438 59.988281 C 125 58.003906 128 57.507812 128 58.582031 Z M 130.667969 72.050781 C 130.667969 75.6875 128.867188 88.824219 127.933594 92.460938 C 126.800781 96.671875 126 97.914062 121.933594 101.632812 C 119.132812 104.277344 117.867188 104.9375 115.667969 104.9375 C 111.800781 104.9375 108.734375 103.53125 106.199219 100.558594 C 103.667969 97.582031 103.601562 97.003906 105.265625 94.195312 C 106.535156 92.292969 106.601562 92.210938 107.867188 93.617188 C 108.535156 94.359375 109.601562 95.019531 110.199219 95.019531 C 110.800781 95.019531 112.667969 95.597656 114.332031 96.261719 C 117.132812 97.5 117.667969 97.417969 121 96.179688 C 123.066406 95.351562 125.199219 94.03125 125.867188 93.121094 C 126.933594 91.632812 126.933594 91.46875 125.398438 89.980469 C 124.535156 89.15625 123.398438 88.410156 122.933594 88.410156 C 121.535156 88.410156 123 85.1875 124.800781 84.363281 C 125.734375 83.949219 126 83.535156 125.464844 83.121094 C 124.066406 82.046875 124.601562 80.808594 126.199219 81.386719 C 127.332031 81.800781 127.066406 81.304688 125.199219 79.320312 C 123.199219 77.257812 122.667969 76.183594 122.667969 73.867188 C 122.667969 71.222656 122.800781 71.058594 124.867188 70.976562 C 126 70.976562 127.601562 70.644531 128.332031 70.234375 C 130.464844 69.078125 130.667969 69.242188 130.667969 72.050781 Z M 99.867188 90.808594 C 100.066406 91.632812 99.867188 91.632812 98.601562 90.890625 C 96.265625 89.402344 94 86.59375 94 85.269531 C 94 83.949219 99.398438 89.070312 99.867188 90.808594 Z M 110.800781 91.054688 C 111 91.796875 111.734375 91.882812 113.734375 91.136719 C 116.867188 90.0625 124.867188 90.394531 125.199219 91.632812 C 125.332031 92.128906 125.066406 92.542969 124.535156 92.542969 C 122.398438 92.707031 110.199219 92.707031 109.066406 92.625 C 108.066406 92.542969 108 92.292969 108.667969 91.304688 C 109.667969 89.816406 110.464844 89.734375 110.800781 91.054688 Z M 137.398438 96.839844 C 145.933594 105.433594 146.667969 106.175781 146.667969 106.753906 C 146.667969 107.085938 145.398438 108.160156 143.867188 109.152344 C 142.265625 110.140625 140.332031 111.628906 139.464844 112.371094 C 137.800781 114.027344 132 124.1875 132 125.59375 C 132 126.089844 132.734375 127.90625 133.667969 129.640625 C 136.066406 134.105469 136.464844 137.988281 134.800781 139.96875 C 134 140.796875 133.066406 141.210938 132.601562 140.796875 C 132 140.382812 132.199219 139.96875 133.265625 139.472656 C 134.667969 138.894531 134.734375 138.402344 134.332031 135.671875 C 134.066406 134.019531 133.800781 132.453125 133.601562 132.285156 C 133.464844 132.121094 132.066406 132.453125 130.535156 132.945312 C 125.464844 134.765625 124.464844 134.929688 124.867188 134.105469 C 125.066406 133.691406 126.867188 132.617188 128.867188 131.789062 C 132.265625 130.386719 132.398438 130.21875 131.734375 128.402344 C 131.332031 127.246094 130.398438 126.417969 129.601562 126.417969 C 127.800781 126.417969 123.601562 130.21875 124.800781 130.796875 C 125.464844 131.128906 125.464844 131.460938 124.667969 132.121094 C 123.933594 132.699219 123.535156 132.617188 123.066406 131.542969 C 122.734375 130.796875 121.800781 129.558594 121.066406 128.816406 C 119.734375 127.410156 119.734375 127.410156 121.535156 124.4375 C 122.601562 122.785156 124.933594 119.3125 126.734375 116.753906 C 129.933594 112.207031 130.066406 111.792969 129.667969 108.488281 C 129.398438 106.011719 129.601562 104.191406 130.398438 102.292969 C 132.199219 97.914062 132.667969 97.417969 134.132812 98.410156 C 136 99.648438 140.667969 105.019531 140.667969 105.929688 C 140.667969 106.339844 139.601562 107.414062 138.265625 108.40625 C 136.933594 109.398438 134.535156 112.703125 132.734375 116.007812 C 130.933594 119.230469 128.667969 122.453125 127.601562 123.113281 C 124.867188 124.765625 123.332031 126.503906 123.332031 127.824219 C 123.332031 128.816406 123.464844 128.816406 124.332031 127.824219 C 124.867188 127.082031 126.601562 125.921875 128.132812 125.179688 C 130.464844 124.105469 131.535156 122.785156 133.933594 118.074219 C 136.734375 112.703125 141.667969 107.414062 143.867188 107.414062 C 145.535156 107.414062 144.464844 106.011719 138.601562 100.0625 C 135.332031 96.671875 132.464844 93.617188 132.265625 93.203125 C 131.398438 91.46875 133.398438 92.957031 137.398438 96.839844 Z M 120 94.03125 C 120 94.9375 115.398438 95.019531 114.933594 94.113281 C 114.734375 93.699219 115.800781 93.367188 117.265625 93.367188 C 118.800781 93.367188 120 93.699219 120 94.03125 Z M 122.667969 111.628906 C 122.667969 112.953125 118.464844 118.984375 117.464844 118.984375 C 116.535156 118.984375 114.199219 113.445312 114.867188 112.703125 C 115.332031 112.125 119.332031 110.96875 121.535156 110.804688 C 122.132812 110.804688 122.667969 111.132812 122.667969 111.628906 Z M 104.535156 115.347656 C 109.535156 118.40625 111.132812 121.460938 110.800781 127.410156 C 110.667969 130.054688 110.265625 132.203125 109.933594 132.203125 C 109.667969 132.203125 108.734375 131.128906 107.933594 129.722656 C 106.601562 127.578125 98.535156 118.570312 95.066406 115.429688 C 94.265625 114.6875 94 113.859375 94.332031 113.199219 C 95.066406 111.710938 100.265625 112.785156 104.535156 115.347656 Z M 132.535156 136.417969 C 132.933594 139.144531 127.464844 143.441406 126 141.621094 C 125.667969 141.210938 125.199219 139.886719 125 138.566406 C 124.535156 136.5 124.667969 136.335938 126.398438 136.253906 C 127.464844 136.253906 128.933594 135.921875 129.667969 135.507812 C 131.332031 134.597656 132.265625 134.929688 132.535156 136.417969 Z M 34.535156 148.8125 C 31.066406 155.257812 29.132812 160.214844 28.066406 165.914062 C 27.601562 168.230469 26.933594 170.210938 26.601562 170.210938 C 23.933594 170.210938 30.398438 151.785156 35.535156 144.84375 C 38 141.457031 37.464844 143.523438 34.535156 148.8125 Z M 135.132812 146.828125 C 135.667969 148.730469 133.199219 150.464844 130.398438 150.214844 C 126.933594 149.886719 127.066406 148.730469 130.734375 146.910156 C 133.867188 145.421875 134.800781 145.421875 135.132812 146.828125 Z M 139.464844 161.453125 C 139.933594 161.121094 140 161.867188 139.667969 163.683594 C 139.199219 166.578125 137.734375 168.558594 136.199219 168.558594 C 135.734375 168.558594 135.332031 168.890625 135.332031 169.386719 C 135.332031 169.796875 135.066406 170.210938 134.667969 170.210938 C 134.332031 170.210938 134 169.46875 134 168.558594 C 134 167.566406 134.398438 166.90625 134.867188 166.988281 C 136.933594 167.402344 137.667969 166.082031 137.464844 162.363281 C 137.332031 160.296875 137.464844 157.984375 137.734375 157.15625 C 138.132812 156.082031 138.332031 156.496094 138.535156 158.890625 C 138.667969 160.792969 139 161.785156 139.464844 161.453125 Z M 55.066406 166.246094 C 55.398438 172.113281 55.332031 174.34375 54.734375 174.34375 C 54.332031 174.34375 54 173.019531 54 171.203125 C 54 169.46875 53.667969 165.914062 53.265625 163.355469 C 52.601562 158.726562 52.933594 156.164062 54 157.570312 C 54.332031 157.902344 54.800781 161.867188 55.066406 166.246094 Z M 135.800781 163.269531 C 135.933594 163.765625 135.265625 165.171875 134.332031 166.410156 C 132.667969 168.640625 132.535156 168.640625 131.265625 167.320312 C 129.601562 165.417969 129.667969 164.179688 131.535156 163.023438 C 133.332031 161.949219 135.464844 162.03125 135.800781 163.269531 Z M 135.800781 163.269531 "/>
<path style=" stroke:none;fill-rule:nonzero;fill:rgb(0%,0%,0%);fill-opacity:1;" d="M 103.734375 55.359375 C 99.667969 56.929688 97.601562 60.730469 99 64.203125 C 99.535156 65.441406 100 67.507812 100 68.746094 C 100 70.480469 100.332031 71.058594 101.265625 71.058594 C 102 71.058594 102.800781 71.472656 103 71.96875 C 103.265625 72.464844 104.265625 72.546875 105.332031 72.296875 C 106.398438 71.96875 107.867188 72.132812 108.601562 72.628906 C 110.535156 73.953125 111.734375 73.042969 113.667969 68.828125 C 115.464844 64.78125 115.867188 59.242188 114.464844 57.507812 C 112.132812 54.617188 108.066406 53.789062 103.734375 55.359375 Z M 110.132812 58.003906 C 110.535156 58.832031 110.667969 58.832031 110.667969 58.003906 C 110.667969 57.179688 111 57.179688 112 57.839844 C 112.734375 58.335938 113.332031 59.242188 113.332031 59.820312 C 113.332031 61.308594 111.398438 62.21875 110.398438 61.226562 C 109.332031 60.234375 105.332031 59.65625 105.332031 60.484375 C 105.332031 60.894531 105 60.980469 104.667969 60.730469 C 104.265625 60.484375 103.066406 60.980469 102 61.96875 C 100.601562 63.210938 100 63.375 100 62.632812 C 100 60.8125 100.867188 59.90625 103.667969 58.582031 C 107.199219 56.929688 109.464844 56.765625 110.132812 58.003906 Z M 110.265625 64.367188 C 110.464844 64.78125 109.398438 64.945312 107.800781 64.863281 C 106.265625 64.78125 105.933594 64.863281 107.132812 65.027344 C 108.667969 65.277344 109.132812 65.6875 108.867188 66.597656 C 108.667969 67.257812 108.867188 67.753906 109.332031 67.753906 C 109.734375 67.753906 109.867188 67.339844 109.667969 66.929688 C 109.066406 65.6875 110.398438 65.9375 111.199219 67.175781 C 112.066406 68.414062 110.535156 71.886719 109.132812 71.886719 C 108.601562 71.886719 108.601562 71.636719 109.199219 70.894531 C 110.734375 68.992188 110 68.332031 107.132812 68.828125 C 105.535156 69.078125 103.601562 69.160156 102.800781 68.828125 L 101.398438 68.414062 L 102.867188 66.84375 C 103.667969 66.019531 104 65.359375 103.667969 65.277344 C 103.265625 65.277344 102.601562 65.6875 102.132812 66.265625 C 101.535156 67.011719 101.332031 67.011719 101.332031 66.265625 C 101.332031 65.769531 101.867188 64.945312 102.535156 64.53125 C 103.933594 63.457031 109.800781 63.375 110.265625 64.367188 Z M 110.265625 64.367188 "/>
<path style=" stroke:none;fill-rule:nonzero;fill:rgb(0%,0%,0%);fill-opacity:1;" d="M 98 14.128906 C 82.132812 23.546875 78.535156 25.945312 72.867188 30.902344 C 72.132812 31.644531 70.933594 33.878906 70.265625 35.941406 C 68.867188 40.570312 69.535156 42.882812 73.132812 45.777344 C 74.535156 46.847656 76.398438 48.585938 77.332031 49.660156 C 78.199219 50.734375 79.265625 51.558594 79.601562 51.394531 C 80.800781 50.898438 81.265625 53.292969 80.867188 57.839844 C 80.464844 63.042969 81.464844 65.277344 84.332031 65.277344 C 85.667969 65.277344 86.464844 64.035156 89 58.253906 C 91.667969 52.21875 92.867188 50.484375 97 46.4375 C 107 36.851562 115.601562 32.804688 126.132812 32.71875 L 131.933594 32.71875 L 130.199219 29.746094 C 129.265625 28.175781 127.535156 25.613281 126.464844 24.210938 C 124.535156 21.648438 124.332031 21.566406 122.800781 22.804688 C 121.933594 23.546875 121.066406 23.878906 120.867188 23.632812 C 120.265625 22.96875 122 20.65625 123.066406 20.65625 C 124.066406 20.65625 124.332031 18.34375 123.464844 16.855469 C 122.066406 14.292969 118.199219 13.21875 109.734375 12.808594 C 101.800781 12.394531 100.734375 12.558594 98 14.128906 Z M 105 17.929688 C 105 20.988281 104.933594 21.070312 102 21.566406 C 97.601562 22.390625 89.398438 26.523438 87.132812 29.167969 C 85.535156 30.984375 85.332031 31.644531 86 32.636719 C 87.132812 34.371094 88.867188 34.207031 92.535156 31.894531 C 94.265625 30.820312 98.265625 28.917969 101.535156 27.679688 C 104.734375 26.523438 107.332031 25.203125 107.332031 24.871094 C 107.332031 23.382812 97.464844 26.605469 92.398438 29.746094 C 89.464844 31.5625 86.933594 32.804688 86.734375 32.636719 C 85.667969 31.316406 94.601562 25.945312 101.398438 23.878906 C 104.464844 22.886719 107.199219 21.730469 107.398438 21.316406 C 107.800781 20.574219 109.332031 19.996094 111.535156 19.914062 C 112.265625 19.832031 112.535156 19.417969 112.265625 18.921875 C 112 18.34375 110.601562 18.179688 108.601562 18.34375 C 106.132812 18.671875 105.332031 18.507812 105.332031 17.683594 C 105.332031 16.195312 112.066406 16.113281 113.265625 17.515625 C 114 18.425781 114.132812 18.34375 113.800781 17.105469 C 113.464844 15.945312 113.800781 15.699219 115.667969 15.699219 C 118 15.699219 121.535156 17.269531 121.132812 18.09375 C 119.132812 22.804688 119.066406 23.136719 120.332031 24.292969 C 121 24.871094 122.066406 25.203125 122.667969 25.035156 C 123.800781 24.621094 126.667969 27.347656 126.667969 28.835938 C 126.667969 29.332031 126.601562 29.746094 126.535156 29.828125 C 126.398438 29.828125 125 29.992188 123.332031 30.242188 C 113.464844 31.644531 106 35.199219 97.800781 42.46875 C 91.601562 47.921875 89.667969 50.816406 85.867188 60.070312 C 85.464844 61.144531 84.601562 61.96875 83.867188 61.96875 C 82.867188 61.96875 82.667969 61.308594 82.667969 57.179688 C 82.667969 54.203125 82.265625 51.722656 81.601562 50.566406 C 80.601562 48.75 80.601562 48.667969 82.332031 49.246094 C 84.464844 49.90625 85.332031 48.667969 85.332031 45.03125 C 85.332031 41.644531 83.601562 38.667969 81.800781 39 C 80.601562 39.164062 80.332031 39.742188 80.398438 42.304688 C 80.464844 44.039062 80.199219 45.445312 79.933594 45.445312 C 79.601562 45.445312 79.332031 46.1875 79.332031 47.097656 C 79.332031 49.164062 78.199219 49.246094 77.734375 47.261719 C 77.535156 46.519531 76.199219 45.113281 74.867188 44.207031 C 72.800781 42.882812 72.265625 41.972656 72.132812 39.828125 C 71.800781 36.027344 73.265625 33.710938 78.535156 29.496094 C 86.265625 23.21875 100.199219 15.039062 103.332031 14.957031 C 104.800781 14.871094 105 15.203125 105 17.929688 Z M 83 42.140625 C 84.132812 44.867188 84.332031 48.75 83.332031 48.75 C 83 48.75 82.667969 47.921875 82.667969 46.847656 C 82.667969 45.859375 82.199219 43.957031 81.667969 42.636719 C 80.464844 39.910156 80.464844 39.660156 81.332031 39.660156 C 81.667969 39.660156 82.398438 40.734375 83 42.140625 Z M 83 42.140625 "/>
<path style=" stroke:none;fill-rule:nonzero;fill:rgb(0%,0%,0%);fill-opacity:1;" d="M 121.199219 34.457031 C 117.132812 34.867188 117 36.355469 121 36.355469 C 123.933594 36.355469 125.398438 38.007812 122.535156 38.007812 C 120.265625 38.089844 125.867188 40.488281 128.265625 40.488281 C 129.398438 40.488281 130.734375 41.230469 131.601562 42.46875 C 133.265625 44.785156 133.332031 45.113281 133.933594 52.46875 L 134.332031 58.167969 L 136.867188 55.359375 C 138.199219 53.789062 139.332031 51.722656 139.332031 50.816406 C 139.332031 49.578125 139.464844 49.410156 139.933594 50.320312 C 140.398438 51.230469 140.667969 51.144531 141.265625 49.742188 C 142.199219 47.59375 142.199219 45.445312 141.332031 45.445312 C 140.933594 45.445312 140.332031 44.535156 140 43.378906 C 139.667969 42.222656 138.933594 41.3125 138.332031 41.3125 C 137.800781 41.3125 137.332031 40.984375 137.332031 40.652344 C 137.332031 39.578125 135.199219 36.769531 133.667969 35.695312 C 132 34.621094 125.464844 33.960938 121.199219 34.457031 Z M 136.265625 41.890625 C 139.667969 46.269531 140 47.757812 137.933594 50.070312 C 136.800781 51.394531 136.464844 51.394531 136 50.402344 C 135.601562 49.742188 135.332031 48.667969 135.332031 48.089844 C 135.332031 46.601562 133.398438 42.304688 131.734375 39.828125 C 130.464844 38.007812 130.464844 38.007812 131.800781 38.007812 C 132.535156 38.007812 134.535156 39.742188 136.265625 41.890625 Z M 136.265625 41.890625 "/>
<path style=" stroke:none;fill-rule:nonzero;fill:rgb(0%,0%,0%);fill-opacity:1;" d="M 134.066406 69.078125 C 134 72.296875 133.535156 78.246094 133 82.214844 C 132.398438 86.179688 132.132812 89.734375 132.398438 89.980469 C 133.066406 90.808594 136.066406 85.601562 135.734375 84.03125 C 135.601562 83.289062 135.734375 82.628906 136.132812 82.628906 C 136.535156 82.628906 136.667969 81.71875 136.398438 80.3125 C 135.867188 77.753906 135.867188 76.59375 136.199219 72.792969 C 136.398438 71.140625 136 68.582031 135.332031 66.597656 L 134.066406 63.210938 Z M 134.066406 69.078125 "/>
<path style=" stroke:none;fill-rule:nonzero;fill:rgb(0%,0%,0%);fill-opacity:1;" d="M 85.535156 73.703125 C 84.199219 76.59375 84.132812 77.007812 85 79.570312 C 86.132812 83.039062 87.398438 84.445312 88.667969 83.453125 C 89.398438 82.875 89.398438 82.460938 88.464844 80.726562 C 87.867188 79.652344 87.332031 76.925781 87.199219 74.695312 L 87 70.644531 Z M 85.535156 73.703125 "/>
<path style=" stroke:none;fill-rule:nonzero;fill:rgb(0%,0%,0%);fill-opacity:1;" d="M 91.332031 91.136719 C 91.332031 92.957031 91 93.367188 89.667969 93.367188 C 88.734375 93.367188 87.398438 93.78125 86.734375 94.359375 C 85.734375 95.105469 85.132812 95.019531 83.800781 93.945312 C 82.132812 92.625 82.066406 92.625 81.734375 94.855469 C 81.535156 96.09375 81.199219 99.152344 81 101.632812 L 80.601562 106.175781 L 83.601562 108.160156 C 86.066406 109.730469 87.199219 109.976562 89.601562 109.5625 C 98.667969 107.828125 105 109.894531 110.667969 116.171875 C 113.734375 119.644531 113.464844 118.238281 110.066406 112.867188 C 108.933594 111.132812 108 109.398438 108 109.152344 C 108 108.488281 102.332031 101.300781 98.601562 97.167969 C 97 95.351562 94.667969 92.789062 93.535156 91.386719 L 91.332031 88.90625 Z M 102.667969 105.019531 C 103.867188 107.664062 103.464844 108.242188 101.265625 107.25 C 99.933594 106.671875 96.667969 106.507812 92.601562 106.835938 C 86.464844 107.332031 85.867188 107.25 84.332031 105.515625 C 82.800781 103.863281 82.667969 103.367188 83.132812 100.390625 C 83.734375 97.167969 83.800781 97.085938 87.398438 96.179688 C 89.398438 95.683594 91.464844 95.105469 92 94.855469 C 93.066406 94.441406 101.667969 102.539062 102.667969 105.019531 Z M 102.667969 105.019531 "/>
<path style=" stroke:none;fill-rule:nonzero;fill:rgb(0%,0%,0%);fill-opacity:1;" d="M 77.667969 102.128906 C 76.535156 103.203125 76.464844 103.449219 77.332031 104.109375 C 78.867188 105.265625 79.132812 105.101562 79.464844 102.871094 C 79.867188 100.472656 79.535156 100.390625 77.667969 102.128906 Z M 77.667969 102.128906 "/>
<path style=" stroke:none;fill-rule:nonzero;fill:rgb(0%,0%,0%);fill-opacity:1;" d="M 54.398438 148.480469 C 57.867188 152.941406 60.800781 158.3125 63.800781 165.667969 C 64.933594 168.394531 66.464844 171.945312 67.332031 173.515625 L 68.800781 176.410156 L 68.398438 173.929688 C 67.332031 166.328125 55.464844 144.597656 52.398438 144.597656 C 51.667969 144.597656 52.265625 145.835938 54.398438 148.480469 Z M 54.398438 148.480469 "/>
<path style=" stroke:none;fill-rule:nonzero;fill:rgb(0%,0%,0%);fill-opacity:1;" d="M 92 169.21875 C 92 170.378906 98.199219 176.988281 101.867188 179.632812 C 102.601562 180.210938 102.601562 179.960938 101.867188 178.558594 C 101.398438 177.566406 100.800781 176.820312 100.535156 176.820312 C 100.332031 176.820312 98.464844 174.921875 96.464844 172.691406 C 92.867188 168.558594 92 167.898438 92 169.21875 Z M 92 169.21875 "/>
<path style=" stroke:none;fill-rule:nonzero;fill:rgb(0%,0%,0%);fill-opacity:1;" d="M 33.601562 170.046875 C 31.132812 172.03125 30.535156 178.96875 32.667969 181.367188 C 33.933594 182.769531 33.933594 182.769531 33.199219 180.375 C 32.601562 178.472656 32.667969 176.988281 33.332031 174.09375 C 34.398438 169.21875 35.332031 169.714844 34.601562 174.757812 C 34 178.640625 34.398438 181.285156 35.398438 180.457031 C 35.734375 180.210938 36 178.0625 36 175.664062 C 36 171.285156 35 168.890625 33.601562 170.046875 Z M 33.601562 170.046875 "/>
<path style=" stroke:none;fill-rule:nonzero;fill:rgb(0%,0%,0%);fill-opacity:1;" d="M 91.265625 173.1875 C 92.734375 175.5 99.199219 181.78125 100.066406 181.78125 C 101.066406 181.78125 99.867188 179.382812 98.734375 178.886719 C 98.066406 178.640625 96.066406 176.738281 94.265625 174.757812 C 90.667969 170.625 89.132812 169.882812 91.265625 173.1875 Z M 91.265625 173.1875 "/>
</g>
</svg>
