<svg width="450" height="450" xmlns="http://www.w3.org/2000/svg" version="1.1">
 <g>
  <title>Layer 1</title>
  <path d="m0,28l0,28l7.708,0l7.708,0l-4.099,-4.25c-4.85,-5.029 -7.325,-9.592 -7.295,-13.45c0.051,-6.567 6.657,-15.428 12.615,-16.924c7.241,-1.817 16.348,1.633 24.023,9.102c7.697,7.49 9.35,16.425 4.241,22.921l-2.046,2.601l11.398,0l11.397,0l5.925,4.594c3.259,2.527 6.253,5.466 6.654,6.531c0.401,1.065 -0.005,4.996 -0.902,8.735l-1.632,6.799l-13.394,1.324c-9.268,0.916 -20.929,1.146 -37.848,0.747l-24.453,-0.578l0,62.221l0,62.221l4.099,3.953c2.254,2.174 6.78,7.212 10.057,11.194l5.958,7.241l3.753,-1.914c2.965,-1.513 14.955,-9.896 21.688,-15.164c1.344,-1.051 14.328,5.478 16.731,8.414c3.355,4.1 6.822,11.765 6.203,13.716c-0.909,2.864 -10.816,11.336 -21.239,18.162c-5.087,3.331 -9.25,6.353 -9.25,6.714c0,0.361 2.965,4.679 6.588,9.596c7.749,10.514 11.166,16.151 12.4,20.454c0.866,3.017 0.678,3.29 -5.295,7.685c-3.406,2.506 -6.431,4.94 -6.723,5.408c-0.291,0.469 -2.762,0.283 -5.491,-0.414c-5.213,-1.329 -5.006,-1.127 -17.39,-17.011c-3.844,-4.929 -4.629,-5.495 -6.101,-4.393c-0.93,0.696 -4.907,3.469 -8.839,6.162l-7.149,4.896l0,78.362l0,78.361l120.75,-0.273l120.75,-0.273l19,-6.314l19,-6.313l7.218,1.688c7.904,1.848 8.411,2.226 10.356,7.719l1.328,3.75l9.716,0c5.343,0 9.865,-0.398 10.049,-0.885c0.191,-0.507 3.964,-0.534 8.833,-0.063c4.675,0.452 11.245,0.85 14.601,0.885l6.101,0.063l2.262,-14.485c1.244,-7.966 2.014,-15.129 1.712,-15.917c-0.971,-2.53 2.345,-2.701 17.568,-0.905l14.909,1.759l5.262,6.024l5.262,6.024l-0.346,8.766l-0.346,8.765l28.257,-0.265l28.258,-0.266l0.256,-78.708l0.256,-78.708l-2.534,2.349c-4.136,3.833 -5.869,3.722 -12.261,-0.789c-6.986,-4.928 -8.297,-6.193 -10.51,-10.144c-2.269,-4.053 -4.72,-11.671 -4.084,-12.699c0.628,-1.016 13.19,-9.447 19.378,-13.005c8.749,-5.031 8.758,-5.133 1.368,-14.8c-14.828,-19.397 -16.166,-21.362 -15.599,-22.916c0.316,-0.869 3.451,-4.479 6.966,-8.022l6.39,-6.443l4.545,1.685c2.5,0.926 4.947,1.436 5.437,1.133c0.507,-0.313 0.889,-27.379 0.886,-62.742l-0.006,-62.191l-8.963,-0.048c-8.395,-0.046 -9.233,-0.245 -13.243,-3.146c-2.355,-1.704 -4.435,-3.856 -4.621,-4.783c-0.516,-2.567 2.788,-13.804 4.871,-16.565c1.679,-2.227 2.718,-2.49 11.656,-2.951l9.812,-0.507l0.266,-27.75l0.266,-27.75l-28.516,0l-28.516,0l0,2.393c0,2.493 1.647,3.607 5.332,3.607c3.197,0 19.305,12.416 20.071,15.471c0.347,1.38 0.327,8.179 -0.044,15.11c-0.5,9.357 -1.031,12.74 -2.063,13.136c-1.285,0.493 -15.481,-1.004 -22.127,-2.333l-2.877,-0.576l-0.827,13.346c-0.455,7.34 -0.863,14.916 -0.907,16.834c-0.101,4.394 -0.628,4.493 -13.583,2.556c-5.68,-0.849 -12.335,-1.544 -14.788,-1.544c-4.09,0 -5.08,-0.554 -11.898,-6.656l-7.437,-6.657l0.693,-10.695c0.786,-12.126 0.907,-11.948 -8.205,-11.978c-3.336,-0.011 -5.169,-0.811 -9.25,-4.037c-2.8,-2.213 -5.09,-4.47 -5.09,-5.015c0,-0.545 -1.462,-1.883 -3.25,-2.973c-1.788,-1.09 -2.665,-1.983 -1.95,-1.985c0.844,-0.003 1.014,-0.514 0.484,-1.461c-0.448,-0.801 -0.344,-7.101 0.231,-14l1.046,-12.543l-9.397,0c-9.28,0 -9.389,0.028 -8.717,2.25c1.49,4.923 1.352,5.043 -11.447,9.972c-17.82,6.864 -60.555,21.778 -62.401,21.778c-1.175,0 -10.498,-3.939 -13.471,-5.692c-0.914,-0.538 -4.973,-14.549 -4.541,-15.674c0.265,-0.691 5.979,-3.171 12.698,-5.511c6.718,-2.34 13.565,-4.863 15.215,-5.608c2.543,-1.147 -15.151,-1.365 -116.25,-1.434l-119.25,-0.081l0,28m245,-27.547c0,0.249 1.66,0.911 3.689,1.472c3.93,1.085 8.663,0.454 7.745,-1.032c-0.548,-0.887 -11.434,-1.306 -11.434,-0.44m15,2.601c-21.003,7.173 -40,14.241 -40,14.883c0,1.932 3.322,11.719 4.336,12.775c0.906,0.943 6.593,-0.681 25.664,-7.33c13.475,-4.698 29.9,-10.369 36.5,-12.602c6.6,-2.233 12.146,-4.18 12.324,-4.327c0.178,-0.147 -0.396,-1.659 -1.276,-3.36l-1.599,-3.093l-13.725,0.075c-12.417,0.068 -14.534,0.352 -22.224,2.979m84.813,-2.371c0.721,0.289 1.584,0.253 1.916,-0.079c0.332,-0.332 -0.258,-0.568 -1.312,-0.525c-1.165,0.048 -1.402,0.285 -0.604,0.604m5.354,0.186c0.348,0.908 11.345,11.131 11.973,11.131c0.198,0 0.36,-2.137 0.36,-4.75c0,-5.344 -1.463,-7.169 -5.785,-7.218l-2.785,-0.032l3.569,3.133c1.962,1.723 3.35,3.352 3.082,3.619c-0.267,0.267 -2.388,-1.143 -4.713,-3.133c-4.046,-3.463 -6.413,-4.605 -5.701,-2.75m14.463,1.381c-0.331,1.238 -0.609,4.852 -0.616,8.031c-0.01,4.232 -0.42,5.938 -1.528,6.363c-0.833,0.319 -7.59,0.012 -15.015,-0.683c-7.426,-0.695 -13.704,-1.062 -13.951,-0.814c-0.247,0.247 -0.707,4.703 -1.021,9.901c-0.314,5.199 -0.806,10.644 -1.092,12.102l-0.522,2.65l10.808,0.65c15.96,0.961 17.586,1.441 18.932,5.585c0.85,2.62 0.804,6.147 -0.191,14.465c-1.973,16.497 -2.154,15.502 2.816,15.49c2.337,-0.005 8.625,0.532 13.973,1.194c5.347,0.662 9.941,0.985 10.209,0.717c0.268,-0.267 0.988,-7.65 1.6,-16.407c0.612,-8.756 1.283,-16.194 1.49,-16.53c0.208,-0.335 5.828,0.257 12.49,1.318c6.661,1.06 12.37,1.67 12.685,1.355c0.641,-0.642 2.342,-24.932 1.784,-25.489c-0.195,-0.196 -6.29,-1.075 -13.544,-1.955l-13.188,-1.599l0.486,-9.297l0.486,-9.297l-13.244,0c-12.889,0 -13.26,0.06 -13.847,2.25m-364.19,26.25c0,15.4 0.139,21.56 0.308,13.689c0.169,-7.87 0.169,-20.47 -0.001,-28c-0.169,-7.529 -0.308,-1.089 -0.307,14.311m238.829,-26.687c-0.779,0.495 0.442,1.23 3.321,2c5.515,1.475 7.937,0.448 3.422,-1.45c-3.692,-1.552 -4.998,-1.659 -6.743,-0.55m83.231,-0.091c0.55,0.521 3.338,3.085 6.195,5.698l5.195,4.751l11.805,1.394c17.236,2.034 16.708,2.275 9.783,-4.459c-6.01,-5.846 -6.035,-5.858 -13.5,-6.519c-4.113,-0.363 -10.403,-0.92 -13.978,-1.236c-4.104,-0.363 -6.131,-0.226 -5.5,0.371m-3.5,2.446c0,1.657 1.725,4.194 5.204,7.655c2.862,2.847 5.51,5.177 5.883,5.177c0.374,0 0.904,-0.858 1.179,-1.907c0.471,-1.802 -2.69,-5.441 -10.016,-11.532c-2.231,-1.855 -2.25,-1.85 -2.25,0.607m-86.5,0.33l-3,1.334l2.815,1.084c3.173,1.222 5.168,1.329 8.435,0.454c2.934,-0.787 2.865,-1.999 -0.157,-2.757c-1.324,-0.333 -3.012,-0.795 -3.75,-1.027c-0.739,-0.232 -2.693,0.178 -4.343,0.912m-76.539,8.813c-4.064,4.393 -9.176,9.281 -11.358,10.862l-3.969,2.875l-3.567,-3.372c-1.962,-1.855 -6.717,-5.848 -10.567,-8.874c-5.618,-4.416 -8.184,-5.735 -13,-6.685c-5.752,-1.134 -6.074,-1.089 -7.785,1.1c-4.859,6.214 -8.561,11.724 -9.174,13.654c-0.762,2.399 -1.375,1.722 16.345,18.049l11.31,10.42l-12.341,11.678l-12.34,11.677l2.451,5.231c1.347,2.878 4.012,6.604 5.922,8.281c3.624,3.181 14.53,8.791 17.095,8.792c0.816,0.001 6.09,-4.59 11.72,-10.201l10.237,-10.203l2.78,2.425c1.529,1.333 5.817,5.349 9.529,8.924c6.146,5.92 7.218,6.553 12,7.094l5.251,0.595l6.146,-6.467c5.814,-6.118 6.089,-6.628 5.105,-9.45c-0.572,-1.641 -6.277,-8.249 -12.679,-14.684l-11.638,-11.701l11.039,-10.916c6.071,-6.003 12.129,-12.992 13.46,-15.532l2.422,-4.616l-2.141,-2.722c-4.911,-6.244 -9.307,-10.545 -10.777,-10.545c-0.863,0 -2.432,-0.462 -3.488,-1.028c-1.056,-0.565 -3.873,-1.392 -6.26,-1.838l-4.339,-0.81l-7.389,7.987m68.289,-5.99c-4.227,1.259 -4.117,2.294 0.334,3.129c4,0.75 9.71,-0.166 8.927,-1.433c-1.078,-1.743 -6.047,-2.653 -9.261,-1.696m-60.741,0.665c-0.294,0.475 2.059,1.65 5.228,2.609c3.17,0.96 5.086,1.905 4.258,2.101c-0.827,0.196 -3.747,-0.319 -6.489,-1.144c-4.097,-1.233 -5.218,-1.268 -6.289,-0.198c-1.071,1.071 -0.223,1.63 4.753,3.137l6.056,1.833l2.5,-2.349c1.375,-1.291 2.157,-2.674 1.737,-3.071c-1.433,-1.356 -11.218,-3.786 -11.754,-2.918m230.158,-0.319c-2.427,2.426 3.941,10.333 8.321,10.333c2.114,0 1.758,-0.578 -3.048,-4.955c-7.113,-6.477 -5.746,-6.461 2.048,0.024c3.893,3.241 7.395,5.281 9.707,5.656c2.727,0.443 3.428,0.283 2.85,-0.652c-1.28,-2.071 -12.694,-10.099 -13.579,-9.552c-0.455,0.281 -1.11,0.054 -1.456,-0.505c-0.706,-1.143 -3.825,-1.368 -4.843,-0.349m-287.47,4.254c-0.894,1.418 -3.11,4.434 -4.926,6.701l-3.302,4.122l3.141,0.628c6.364,1.273 7.31,0.859 11.186,-4.896c2.046,-3.038 3.829,-6.055 3.962,-6.706c0.142,-0.695 -1.544,-1.439 -4.097,-1.805c-3.908,-0.561 -4.5,-0.367 -5.964,1.956m212.586,0.105c-0.405,2.756 0.093,3.437 5.106,6.993c4.855,3.444 5.67,3.734 6.472,2.3c0.666,-1.189 0.398,-2.018 -0.971,-3.007c-1.04,-0.752 -3.751,-3.16 -6.024,-5.353l-4.135,-3.987l-0.448,3.054m82.121,-1.674c2.132,2.617 9.096,7.935 9.096,6.945c0,-0.478 -2.363,-2.625 -5.25,-4.769c-2.887,-2.145 -4.618,-3.124 -3.846,-2.176m-185.904,0.57c0,1.577 6.485,3.204 9.024,2.265c2.277,-0.842 2.25,-0.896 -0.992,-2.026c-3.997,-1.393 -8.032,-1.513 -8.032,-0.239m-98.744,4.817c-1.611,2.068 -3.777,5.228 -4.814,7.02l-1.884,3.259l14.221,14.078c13.189,13.055 16.671,17.904 12.858,17.904c-0.749,0 -4.43,3.263 -8.179,7.25c-3.749,3.987 -8.779,9.342 -11.179,11.898l-4.362,4.648l5.649,6.102c3.107,3.356 6.173,6.102 6.814,6.102c1.363,0 15.562,-14.367 21.001,-21.25c2.064,-2.612 4.384,-4.75 5.154,-4.75c0.771,0 3.172,2.396 5.336,5.325c3.725,5.043 10.864,11.687 17.439,16.23l2.975,2.055l4.515,-4.827c4.191,-4.481 4.421,-5.001 3.215,-7.255c-1.425,-2.663 -20.038,-21.174 -23.972,-23.841l-2.458,-1.666l12.564,-12.26c6.91,-6.744 13.516,-13.664 14.681,-15.379l2.118,-3.118l-3.003,-4.534c-5.248,-7.923 -4.857,-7.988 -14.657,2.42c-13.956,14.821 -17.235,17.85 -19.326,17.85c-1.079,0 -1.962,-0.344 -1.962,-0.764c0,-0.859 -16.755,-15.93 -24.657,-22.18l-5.157,-4.078l-2.93,3.761m93.744,-3.188c0,1.044 7.09,3.511 8.17,2.844c0.614,-0.379 -0.322,-1.26 -2.158,-2.032c-3.357,-1.411 -6.012,-1.77 -6.012,-0.812m-52.48,2.416c-0.371,0.601 1.411,1.953 4.166,3.162c2.648,1.162 4.273,2.313 3.611,2.559c-0.661,0.246 -3.224,-0.447 -5.694,-1.54c-4.075,-1.802 -4.614,-1.839 -5.798,-0.405c-0.788,0.956 -0.909,1.727 -0.305,1.947c4.231,1.545 8.693,4.162 7.21,4.229c-0.984,0.045 -3.528,-0.806 -5.652,-1.889c-3.329,-1.699 -4.027,-1.772 -5.055,-0.534c-0.984,1.186 -0.387,1.829 3.402,3.67c2.527,1.228 4.595,2.588 4.595,3.022c0,0.435 -2.462,-0.417 -5.472,-1.893c-5.197,-2.55 -7.509,-2.691 -6.076,-0.373c0.358,0.58 2.72,2.267 5.249,3.748l4.597,2.694l2.101,-2.562c1.155,-1.41 4.041,-4.85 6.412,-7.644l4.31,-5.08l-3.397,-1.42c-5.788,-2.418 -7.532,-2.778 -8.204,-1.691m52.961,2.233c1.586,7.908 2.47,9.378 6.949,11.554l4.402,2.139l-2.173,-6.442c-1.859,-5.511 -2.727,-6.74 -6.006,-8.497l-3.834,-2.055l0.662,3.301m182.519,-1.7c0,0.825 0.73,1.5 1.622,1.5c1.329,0 1.398,-0.271 0.378,-1.5c-0.685,-0.825 -1.415,-1.5 -1.622,-1.5c-0.208,0 -0.378,0.675 -0.378,1.5m-75,3.824c0,1.79 1.381,3.31 5.485,6.034c6.321,4.198 6.515,4.252 6.515,1.839c0,-1.067 -2.449,-3.531 -6,-6.035c-5.816,-4.101 -6,-4.158 -6,-1.838m-296.559,6.208c1.068,0.807 2.643,1.454 3.5,1.436c1.246,-0.025 1.17,-0.326 -0.382,-1.5c-1.068,-0.807 -2.643,-1.454 -3.5,-1.436c-1.246,0.025 -1.17,0.326 0.382,1.5m5.194,-0.497c0.55,0.55 2.514,1.434 4.365,1.965c2.243,0.643 3.032,0.632 2.365,-0.035c-0.55,-0.55 -2.514,-1.434 -4.365,-1.965c-2.243,-0.643 -3.032,-0.632 -2.365,0.035m291.365,0.745c0,1.07 2.297,4.095 5.105,6.722c3.982,3.724 5.299,4.47 5.985,3.387c1.735,-2.74 0.794,-4.443 -4.358,-7.889c-6.749,-4.515 -6.732,-4.509 -6.732,-2.22m-305,-0.379c0,0.221 1.516,1.296 3.37,2.39c4.047,2.388 7.124,1.368 3.509,-1.163c-2.052,-1.437 -6.879,-2.298 -6.879,-1.227m88.001,1.1c0.684,0.824 2.629,1.499 4.321,1.499c3.824,0 2.433,-1.5 -2.194,-2.367c-2.919,-0.547 -3.205,-0.43 -2.127,0.868m-90.542,1.566c-0.363,0.586 -0.502,1.172 -0.309,1.302c4.748,3.202 6.157,3.724 7.207,2.67c0.858,-0.861 0.52,-1.626 -1.357,-3.071c-2.828,-2.176 -4.577,-2.461 -5.541,-0.901m132.541,-0.313c0,0.506 2.062,2.853 4.582,5.215c4.014,3.763 4.763,4.114 6.04,2.837c1.277,-1.277 0.802,-1.88 -3.832,-4.867c-6.509,-4.196 -6.79,-4.328 -6.79,-3.185m-38,2.746c0.685,0.825 2.595,1.5 4.245,1.5c2.553,0 2.815,-0.223 1.755,-1.5c-0.685,-0.825 -2.595,-1.5 -4.245,-1.5c-2.553,0 -2.815,0.223 -1.755,1.5m-97,0.418c0,0.505 -0.241,1.546 -0.535,2.313c-0.315,0.822 0.505,1.95 2,2.75c1.394,0.746 2.535,1.783 2.535,2.303c0,0.52 -1.164,0.183 -2.587,-0.749c-1.422,-0.932 -2.845,-1.437 -3.16,-1.121c-1.067,1.066 1.698,8.191 4.028,10.38l2.314,2.174l-0.386,-3.305c-0.212,-1.817 0.342,-5.045 1.231,-7.173c1.61,-3.853 1.605,-3.879 -1.162,-6.144c-2.996,-2.452 -4.278,-2.88 -4.278,-1.428m16.813,0.065c-1.477,0.445 -2.884,0.613 -3.125,0.371c-0.902,-0.902 -5.678,5.881 -6.817,9.683c-2.483,8.288 4.911,16.963 14.46,16.963c9.464,0 15.658,-5.378 15.665,-13.602c0.009,-9.889 -9.944,-16.505 -20.183,-13.415m84.079,3.387c0.744,0.896 2.738,1.63 4.43,1.63c3.848,0 2.464,-1.518 -2.302,-2.525c-3.142,-0.664 -3.349,-0.576 -2.128,0.895m5.765,4.803c2.015,2.227 7.269,2.648 5.433,0.436c-0.635,-0.765 -2.489,-1.587 -4.12,-1.827c-2.816,-0.413 -2.883,-0.343 -1.313,1.391m142.551,1.538c-3.892,0.745 -8.849,6.624 -10.147,12.033c-0.999,4.167 -0.924,5.557 0.489,9.09c1.645,4.11 6.154,8.439 11.864,11.389c2.892,1.493 2.822,1.526 -9,4.21c-21.826,4.956 -21.926,4.996 -23.25,9.413c-1.807,6.033 -1.503,14.543 0.586,16.399c4.076,3.623 8.347,4.511 15.25,3.17c44.453,-8.633 54.915,-10.983 67.246,-15.103l13.754,-4.595l-0.015,-7.108c-0.009,-3.91 -0.384,-7.69 -0.835,-8.401c-0.451,-0.71 -3.679,-2.644 -7.174,-4.297l-6.353,-3.004l-10.062,2.181c-5.533,1.2 -10.621,2.394 -11.306,2.652c-0.896,0.339 -0.828,-0.33 0.244,-2.385c1.908,-3.658 1.896,-7.474 -0.037,-12.101c-2.255,-5.395 -4.188,-7.16 -11.934,-10.894c-6.851,-3.302 -12.13,-4.026 -19.32,-2.649m7.792,2.297c1.496,0.959 7.767,1.425 6.851,0.509c-0.266,-0.265 -2.253,-0.704 -4.417,-0.976c-2.743,-0.345 -3.48,-0.203 -2.434,0.467m-145.5,0.992c0.34,0.55 1.743,1 3.118,1c1.412,0 2.231,-0.435 1.882,-1c-0.34,-0.55 -1.743,-1 -3.118,-1c-1.412,0 -2.231,0.435 -1.882,1m139.5,-0.468c0,0.897 4.441,2.268 5.434,1.678c0.513,-0.305 0.063,-0.896 -1,-1.312c-2.344,-0.918 -4.434,-1.09 -4.434,-0.366m87,-0.123c0,0.225 2.925,2.707 6.5,5.517c6.03,4.738 6.5,4.938 6.5,2.765c0,-3.605 -6.398,-8.691 -10.934,-8.691c-1.136,0 -2.066,0.184 -2.066,0.409m10.5,1.591c0.34,0.55 1.068,1 1.618,1c0.55,0 0.722,-0.45 0.382,-1c-0.34,-0.55 -1.068,-1 -1.618,-1c-0.55,0 -0.722,0.45 -0.382,1m-102.941,0.9c-1.59,0.623 -1.201,0.948 2.153,1.799c4.993,1.267 8.141,-0.044 3.939,-1.642c-3.151,-1.197 -3.416,-1.204 -6.092,-0.157m-130.559,1.6c0.685,0.825 2.37,1.5 3.745,1.5c2.109,0 2.305,-0.235 1.255,-1.5c-0.685,-0.825 -2.37,-1.5 -3.745,-1.5c-2.109,0 -2.305,0.235 -1.255,1.5m223,1.743c0,2.996 0.669,3.837 5.958,7.486c5.436,3.752 6.011,3.944 6.564,2.2c0.797,-2.51 0.622,-2.735 -6.459,-8.299l-6.063,-4.763l0,3.376m-81.424,-0.253c-4.742,2.209 -6.908,5.985 -6.819,11.888c0.079,5.214 2.441,8.885 7.314,11.37c6.754,3.444 14.193,1.792 19.31,-4.289c4.499,-5.346 3.115,-14.064 -2.996,-18.871c-3.366,-2.648 -11.237,-2.694 -16.809,-0.098m-14.117,0.077c-0.809,1.308 -0.725,1.378 3.23,2.711c2.43,0.82 3.438,0.773 4.242,-0.194c0.786,-0.948 0.409,-1.564 -1.486,-2.427c-3.165,-1.442 -5.132,-1.472 -5.986,-0.09m-123.459,1.351c0,0.592 6.568,4.582 7.542,4.582c0.444,0 -0.25,-1.125 -1.542,-2.5c-1.97,-2.097 -6,-3.495 -6,-2.082m122,3.55c0,1.108 1.202,2.639 2.75,3.503l2.75,1.535l-2.75,-0.611c-1.769,-0.394 -2.75,-0.199 -2.75,0.546c0,2.259 2.934,6.786 5.479,8.453l2.58,1.691l-0.779,-2.792c-0.429,-1.536 -0.702,-4.874 -0.607,-7.418c0.15,-4.03 -0.145,-4.769 -2.297,-5.75c-3.479,-1.585 -4.376,-1.412 -4.376,0.843m-124,-0.184c0,0.432 1.351,1.583 3.002,2.558c3.982,2.352 6.111,1.031 2.343,-1.453c-2.968,-1.957 -5.345,-2.448 -5.345,-1.105m-3.523,3.241c-1.605,1.774 -1.505,1.936 2.106,3.445c3.231,1.35 3.996,1.379 5.177,0.199c1.18,-1.181 0.869,-1.69 -2.106,-3.446c-3.401,-2.006 -3.536,-2.011 -5.177,-0.198m224.523,0.729c0,2.339 0.91,3.375 5.299,6.035c6.141,3.722 6.701,3.839 6.701,1.408c0,-1.067 -2.449,-3.531 -6,-6.035l-6,-4.231l0,2.823m-346,1.267c0,0.562 1.125,1.534 2.5,2.161c1.375,0.626 2.5,1.517 2.5,1.979c0,1.105 -0.721,1.058 -3.066,-0.196c-1.522,-0.815 -1.934,-0.708 -1.934,0.5c0,1.214 1.29,1.535 6.176,1.535l6.176,0l-4.923,-3.5c-4.968,-3.533 -7.429,-4.353 -7.429,-2.479m9.262,1.639c2.056,1.463 3.738,3.038 3.738,3.5c0,0.462 1.892,0.84 4.204,0.84l4.203,0l-5.453,-3.474c-3,-1.911 -6.574,-3.486 -7.942,-3.5c-2.33,-0.024 -2.25,0.143 1.25,2.634m5.131,-1.834c0.281,0.455 2.332,1.648 4.559,2.652c2.226,1.004 4.048,2.207 4.048,2.674c0,0.466 1.456,0.848 3.237,0.848l3.236,0l-5.197,-3.5c-4.59,-3.091 -11.256,-4.894 -9.883,-2.674m22.09,0.603l-2.958,1.209l4.576,2.681c2.516,1.474 5.86,2.681 7.431,2.681l2.857,0l-3.445,-2.52c-1.894,-1.386 -3.907,-3.137 -4.474,-3.89c-0.835,-1.111 -1.588,-1.142 -3.987,-0.161m4.517,-1.001c0,1.08 12.012,7.572 14.011,7.572c1.871,0 1.404,-0.674 -2.774,-4c-3.429,-2.73 -6.009,-4 -8.13,-4c-1.709,0 -3.107,0.192 -3.107,0.428m11.115,1.388c5.335,4.061 9.983,6.304 12.44,6.002c2.387,-0.292 2.134,-0.622 -3.118,-4.068c-3.394,-2.227 -6.932,-3.75 -8.711,-3.75l-2.996,0l2.385,1.816m7.885,-1.185c0,0.157 2.138,1.52 4.75,3.029c2.612,1.509 5.069,3.212 5.458,3.784c0.479,0.702 1.037,0.711 1.723,0.025c1.431,-1.431 -4.605,-6.047 -8.691,-6.647c-1.782,-0.262 -3.24,-0.348 -3.24,-0.191m376.5,2.846c3.323,2.864 4.805,3.454 8.75,3.485c3.69,0.03 4.75,-0.317 4.75,-1.552c0,-2.253 -4.042,-5.342 -7,-5.35c-2.439,-0.006 -2.415,0.066 1,2.94c2.177,1.832 2.919,2.956 1.962,2.973c-0.846,0.015 -3.096,-1.305 -5,-2.932c-1.904,-1.628 -4.587,-2.971 -5.962,-2.985c-2.37,-0.025 -2.292,0.153 1.5,3.421m12.5,-2.977c0,0.275 0.225,0.5 0.5,0.5c0.275,0 0.5,-0.225 0.5,-0.5c0,-0.275 -0.225,-0.5 -0.5,-0.5c-0.275,0 -0.5,0.225 -0.5,0.5m-419.81,4.587c1.98,1.694 4.508,2.848 6.292,2.872l2.982,0.041l-3.482,-2.348c-1.915,-1.292 -4.746,-2.585 -6.292,-2.873l-2.81,-0.525l3.31,2.833m87.609,-1.731c-1.523,1.158 -1.243,1.515 2.67,3.417c3.814,1.853 4.528,1.936 5.594,0.651c0.672,-0.81 1.045,-1.598 0.83,-1.751c-2.33,-1.653 -5.984,-3.666 -6.608,-3.641c-0.432,0.017 -1.55,0.613 -2.486,1.324m312.775,1.843c-0.752,1.816 -1.925,5.182 -2.608,7.481c-1.199,4.041 -1.145,4.264 1.647,6.718c1.588,1.396 3.112,2.545 3.387,2.554c0.275,0.008 1.745,-3.197 3.267,-7.121c2.651,-6.833 2.693,-7.217 1.012,-9.076c-3.632,-4.012 -5.22,-4.144 -6.705,-0.556m-84.574,-0.292c0,1.12 9.876,10.093 11.108,10.093c0.491,0 0.892,-1.125 0.892,-2.5c0,-1.432 -0.577,-2.5 -1.35,-2.5c-0.742,0 -3.214,-1.35 -5.491,-3c-4.441,-3.217 -5.159,-3.508 -5.159,-2.093m-233.285,2.856c-1.49,1.646 -1.297,1.885 2.926,3.632c4.081,1.688 4.673,1.72 6.069,0.324c1.396,-1.396 1.148,-1.751 -2.542,-3.633c-4.92,-2.51 -4.493,-2.489 -6.453,-0.323m194.785,1.198c-2.798,0.538 -2.58,0.715 3.231,2.629c7.399,2.437 10.042,1.645 4.011,-1.202c-2.757,-1.302 -5.292,-1.802 -7.242,-1.427m-306.5,7.224l0,7.498l22.25,0.662c13.112,0.39 26.768,0.24 33.25,-0.365c16.981,-1.584 17.355,-1.696 19.036,-5.72c0.805,-1.927 1.464,-4.574 1.464,-5.882l0,-2.378l-22.25,-0.003c-12.238,-0.002 -29.337,-0.298 -38,-0.657l-15.75,-0.653l0,7.498m438.806,-3.435c-1.254,2.981 -3.82,10.167 -3.802,10.649c0.002,0.056 3.377,0.182 7.5,0.281l7.496,0.18l0,-7.43l0,-7.43l-4.808,0c-4.608,0 -4.873,0.156 -6.386,3.75m-142.283,-1.837c-3.007,1.175 10.336,5.445 13.434,4.299c2.038,-0.754 1.675,-1.075 -3.428,-3.028c-6.137,-2.348 -6.976,-2.455 -10.006,-1.271m-189.475,1.529c-0.985,1.187 -0.464,1.815 2.954,3.559c3.259,1.663 4.456,1.864 5.574,0.936c2.108,-1.75 1.789,-2.393 -2.11,-4.252c-4.306,-2.053 -4.897,-2.075 -6.418,-0.243m180.628,0.417c-2.615,1.031 10.434,5.558 13.351,4.633c1.862,-0.592 1.453,-1.008 -3.037,-3.088c-5.375,-2.49 -7.215,-2.766 -10.314,-1.545m-137.562,1.504c-0.916,1.103 -0.655,1.272 1.366,0.886c1.373,-0.263 2.25,-0.876 1.949,-1.363c-0.785,-1.27 -2.012,-1.094 -3.315,0.477m131.553,1.089c-1.776,1.347 -1.776,1.418 0,2.337c2.752,1.423 8.842,2.337 10.735,1.61c1.233,-0.473 0.326,-1.263 -3.465,-3.02c-2.825,-1.308 -5.203,-2.365 -5.286,-2.347c-0.083,0.017 -0.976,0.657 -1.984,1.42m-178.208,0.615c-0.363,0.586 -0.502,1.182 -0.309,1.323c6.159,4.526 7.026,4.863 8.564,3.325c1.391,-1.391 1.139,-1.749 -2.546,-3.629c-4.733,-2.415 -4.835,-2.433 -5.709,-1.019m209.587,0.527c-4.963,1.557 -15.85,3.981 -49.046,10.92c-12.375,2.587 -22.845,5.022 -23.267,5.411c-0.792,0.732 -2.677,14.075 -1.987,14.075c0.213,0 13.655,-2.718 29.87,-6.041c19.363,-3.967 33.375,-7.421 40.821,-10.064c12.295,-4.363 12.563,-4.64 12.563,-13.02c0,-3.339 -1.641,-3.574 -8.954,-1.281m-161.929,0.273c-2.002,0.561 -2.153,0.858 -0.948,1.859c1.881,1.56 5.869,0.536 5.155,-1.325c-0.582,-1.516 -0.664,-1.527 -4.207,-0.534m110.883,2.046c-2.161,0.617 -1.687,0.928 3.5,2.301c3.627,0.96 4.983,1.627 3.428,1.687c-1.414,0.054 -4.685,-0.621 -7.268,-1.501c-6.437,-2.193 -9.64,-0.974 -4.152,1.58c2.663,1.24 3.326,1.873 1.992,1.904c-1.1,0.025 -3.125,-0.598 -4.5,-1.384c-1.375,-0.786 -4.075,-1.401 -6,-1.367l-3.5,0.061l3.75,1.539c2.063,0.846 3.75,1.958 3.75,2.47c0,1.039 -3.11,0.25 -7.185,-1.822c-1.596,-0.812 -3.512,-1.059 -4.727,-0.609c-1.815,0.671 -1.571,1.006 2.193,3.003l4.237,2.247l14.829,-3.339l14.829,-3.338l-5.677,-2.173c-3.122,-1.194 -5.974,-2.127 -6.338,-2.072c-0.364,0.055 -1.786,0.42 -3.161,0.813m13.902,1.128c2.533,1.149 5.257,1.726 6.417,1.358c1.781,-0.566 1.634,-0.799 -1.267,-2.019c-1.805,-0.759 -4.692,-1.37 -6.417,-1.358c-3.1,0.022 -3.086,0.044 1.267,2.019m-169.885,4.776c1.528,2.718 3.907,4.898 7.37,6.752c5.067,2.714 5.094,2.717 2.988,0.335c-1.169,-1.322 -2.602,-3.304 -3.185,-4.404c-0.583,-1.1 -2.942,-3.057 -5.244,-4.349l-4.185,-2.348l2.256,4.014m48.483,-2.421c2.428,1.87 4.819,2.069 4.256,0.354c-0.226,-0.687 -1.726,-1.395 -3.333,-1.572c-2.816,-0.31 -2.85,-0.265 -0.923,1.218m4.5,4.104c1.346,1.622 5,2.066 5,0.607c0,-1.02 -2.427,-2.107 -4.704,-2.107c-1.256,0 -1.311,0.277 -0.296,1.5m73.608,-0.675c-0.912,1.476 8.132,5.207 10.5,4.331c1.903,-0.704 1.564,-1.051 -2.912,-2.977c-5.525,-2.376 -6.814,-2.606 -7.588,-1.354m-232.137,62.675c0,34.65 0.125,48.68 0.279,31.178c0.153,-17.503 0.153,-45.853 -0.001,-63c-0.153,-17.148 -0.278,-2.828 -0.278,31.822m14.988,-58.683c-9.448,4.438 -12.306,13.325 -6.597,20.509c1.574,1.981 4.708,5.144 6.965,7.029c9.954,8.317 27.736,6.722 31.733,-2.845c2.775,-6.641 1.634,-12.162 -3.595,-17.391c-7.612,-7.613 -20.707,-10.967 -28.506,-7.302m213.183,4.33c-0.961,9.201 -0.923,9.349 2.892,11.168c1.944,0.927 3.681,1.685 3.861,1.685c0.18,0 0.573,-2.588 0.873,-5.75c0.301,-3.162 0.841,-6.484 1.2,-7.381c0.465,-1.157 -0.341,-2.245 -2.775,-3.75c-1.886,-1.165 -3.874,-2.119 -4.419,-2.119c-0.544,0 -1.278,2.766 -1.632,6.147m-65.398,-3.897c0.226,0.688 1.7,1.401 3.276,1.585c2.517,0.294 2.706,0.142 1.551,-1.25c-1.563,-1.883 -5.423,-2.151 -4.827,-0.335m-150.616,3.905c-4.237,3.493 -4.412,4.37 -1.378,6.901c1.238,1.033 1.714,1.892 1.059,1.911c-0.655,0.018 -1.469,-0.417 -1.809,-0.967c-1.136,-1.838 -2.5,-1.028 -2.5,1.484c0,1.367 1.284,3.921 2.853,5.677l2.853,3.193l-0.469,-3.191c-0.257,-1.755 0.115,-4.599 0.828,-6.321c1.19,-2.871 1.107,-3.284 -0.995,-4.986c-1.584,-1.283 -1.832,-1.856 -0.803,-1.856c0.818,0 2.053,0.681 2.743,1.512c0.945,1.139 1.588,1.236 2.603,0.394c1.103,-0.915 0.942,-1.455 -0.883,-2.979c-2.657,-2.217 -1.59,-2.537 1.565,-0.469c2.7,1.769 5.67,0.588 3.354,-1.334c-2.755,-2.287 -5.357,-1.989 -9.021,1.031m10.323,-1.714c0.657,0.792 1.875,1.179 2.706,0.86c1.227,-0.471 1.261,-0.738 0.177,-1.425c-0.734,-0.465 -1.952,-0.852 -2.706,-0.861c-1.082,-0.012 -1.119,0.29 -0.177,1.426m5.049,-0.941c0,0.275 0.225,0.5 0.5,0.5c0.275,0 0.5,-0.225 0.5,-0.5c0,-0.275 -0.225,-0.5 -0.5,-0.5c-0.275,0 -0.5,0.225 -0.5,0.5m140.5,1.538c-2.237,0.836 -1.222,1.442 3.75,2.242c3.333,0.536 3.389,0.367 0.5,-1.519c-1.386,-0.905 -3.018,-1.183 -4.25,-0.723m-145,3.497c-10.112,5.132 -10.033,17.837 0.136,22.086c4.569,1.909 11.088,1.688 16.004,-0.545c4.736,-2.15 6.993,-6.89 5.944,-12.481c-1.491,-7.949 -14.09,-13.117 -22.084,-9.06m364,5.522c-23.617,0.812 -54.396,2.761 -55.63,3.523c-1.051,0.65 -1.144,17.483 -0.105,18.973c0.404,0.579 3.595,3.412 7.091,6.295c5.908,4.872 6.649,5.205 10.5,4.711c2.279,-0.292 14.719,-1.013 27.644,-1.602c26.589,-1.21 57.767,-3.358 58.329,-4.017c0.371,-0.435 -1.063,-14.306 -1.936,-18.733c-0.249,-1.261 -1.227,-2.585 -2.173,-2.941c-0.946,-0.357 -4.271,-2.138 -7.388,-3.957c-4.702,-2.745 -6.577,-3.277 -11,-3.124c-2.933,0.102 -14.332,0.494 -25.332,0.872m-114.816,2.331c-7.058,2.63 -10.684,7.617 -10.684,14.694c0,3.472 0.585,4.734 3.45,7.435c5.126,4.835 13.112,8.483 18.568,8.483c6.731,0 13.441,-2.62 16.952,-6.619c3.903,-4.444 4.229,-11.311 0.78,-16.415c-4.752,-7.032 -19.92,-10.987 -29.066,-7.578m131.313,-0.386c-1.211,0.748 3.177,4.901 5.388,5.097c0.613,0.055 2.372,0.211 3.908,0.348l2.794,0.249l-3.755,-3.098c-3.812,-3.145 -6.229,-3.898 -8.335,-2.596m6.512,0.012c0.884,1.431 8.077,4.986 10.089,4.986c1.103,0 0.386,-1.026 -2.098,-3c-3.527,-2.803 -9.398,-4.262 -7.991,-1.986m7.503,-0.323c0.016,1.022 6.568,5.309 8.114,5.309c0.634,0 -0.372,-1.032 -2.236,-2.293c-5.264,-3.561 -5.891,-3.883 -5.878,-3.016m-47.835,0.996c-1.804,0.72 5.032,5.313 7.907,5.313c1.902,0 1.694,-0.395 -1.584,-3c-3.914,-3.11 -4.13,-3.19 -6.323,-2.313m6.878,0.879c2.029,2.445 6.536,4.434 10.045,4.434l3.2,0l-4.141,-3c-4.571,-3.311 -11.578,-4.415 -9.104,-1.434m7.945,-1.021c0,1.174 9.141,5.449 11.588,5.419l2.912,-0.036l-3,-2.459c-3.85,-3.156 -2.165,-3.124 3,0.057c2.2,1.355 4.872,2.466 5.937,2.469c1.716,0.004 1.616,-0.33 -0.876,-2.932c-2.679,-2.795 -3.215,-2.935 -11.187,-2.913c-4.606,0.013 -8.374,0.191 -8.374,0.395m-104.187,1.138c0.721,0.289 1.584,0.253 1.916,-0.079c0.332,-0.332 -0.258,-0.568 -1.312,-0.525c-1.165,0.048 -1.402,0.285 -0.604,0.604m77.187,0.133c0,1.687 7.897,5.183 11.636,5.151l3.864,-0.034l-2.5,-1.966c-1.375,-1.081 -3.044,-2.416 -3.708,-2.967c-1.443,-1.195 -9.292,-1.351 -9.292,-0.184m-82.5,1.184c0.34,0.55 1.266,1 2.059,1c0.793,0 1.441,-0.45 1.441,-1c0,-0.55 -0.927,-1 -2.059,-1c-1.132,0 -1.781,0.45 -1.441,1m67.266,2.029c2.09,1.901 4.34,2.971 6.25,2.971c1.641,0 2.984,-0.165 2.984,-0.367c0,-1.086 -8.293,-5.629 -10.229,-5.604c-2.144,0.028 -2.089,0.195 0.995,3m4.234,-2.628c0,1.426 7.763,4.599 11.251,4.599l4.138,0l-3.389,-2.5c-2.379,-1.755 -4.672,-2.5 -7.694,-2.5c-2.368,0 -4.306,0.181 -4.306,0.401m-76.25,1.288c-2.535,0.663 -2.147,1.995 0.796,2.733c3.3,0.829 4.931,-0.142 3.38,-2.011c-0.644,-0.776 -1.453,-1.359 -1.798,-1.295c-0.346,0.064 -1.416,0.322 -2.378,0.573m62.917,-0.022c-0.367,0.366 -0.667,3.914 -0.667,7.883c0,7.152 0.036,7.25 4.003,10.834c2.201,1.989 4.114,3.617 4.25,3.618c0.136,0.001 0.101,-3.261 -0.078,-7.25c-0.304,-6.788 -0.556,-7.492 -3.953,-11.002c-3.906,-4.038 -3.628,-5.001 0.505,-1.75c3.844,3.024 6.492,2.517 2.773,-0.531c-2.959,-2.426 -5.531,-3.104 -6.833,-1.802m-52.024,1.361c-5.032,1.508 -9.643,7.233 -9.643,11.972c0,3.388 2.807,7.849 5.967,9.483c5.994,3.1 16.327,1.338 20.891,-3.561c2.907,-3.12 2.958,-10.615 0.097,-14.253c-3.156,-4.012 -10.747,-5.608 -17.312,-3.641m-15.184,2.039c-0.756,1.223 -0.822,1.158 2.707,2.671c3.593,1.54 4.764,-0.993 1.208,-2.614c-3.025,-1.378 -3.098,-1.379 -3.915,-0.057m156.458,0.302c-0.229,0.203 -11.442,0.681 -24.917,1.063c-13.475,0.382 -30.125,1.103 -37,1.602c-6.875,0.499 -13.738,0.921 -15.25,0.937c-2.747,0.029 -2.75,0.038 -2.75,7.338c0,11.459 -2.233,10.8 31,9.142c15.675,-0.782 35.379,-1.724 43.788,-2.094l15.287,-0.673l-0.537,-4.342c-1.833,-14.799 -1.239,-13.342 -5.433,-13.342c-2.074,0 -3.959,0.166 -4.188,0.369m-158.25,3.298c-1.197,1.196 -0.71,1.992 1.962,3.21c1.446,0.659 2.385,1.442 2.086,1.741c-0.299,0.299 -1.482,0.042 -2.629,-0.572c-1.758,-0.941 -2.086,-0.831 -2.086,0.696c0,2.207 2.489,5.914 4.801,7.152c1.519,0.813 1.681,0.269 1.534,-5.131c-0.104,-3.791 -0.663,-6.355 -1.5,-6.886c-1.618,-1.026 -3.269,-1.109 -4.168,-0.21m-104.304,4.524c-1.158,1.548 -4.108,11.237 -4.508,14.809c-0.349,3.115 8.492,17 10.824,17c0.886,0 11.333,2.45 23.216,5.444c19.907,5.016 61.388,14.556 63.29,14.556c0.448,0 0.815,-1.002 0.815,-2.227c0,-1.225 0.756,-5.744 1.679,-10.042l1.68,-7.815l-6.307,-6.364c-4.834,-4.877 -7.387,-6.647 -10.93,-7.577c-2.542,-0.667 -10.697,-2.948 -18.122,-5.068c-7.425,-2.119 -19.125,-5.027 -26,-6.461c-6.875,-1.434 -15.65,-3.44 -19.5,-4.456c-10.753,-2.841 -15.003,-3.314 -16.137,-1.799m4.399,3.912c1.179,1.868 2.938,3.561 3.908,3.762c1.457,0.302 1.32,-0.211 -0.789,-2.945c-3.524,-4.569 -5.877,-5.186 -3.119,-0.817m5.239,0.899c2.312,3.246 5.467,5.342 7.183,4.77c1.536,-0.512 -5.581,-7.772 -7.62,-7.772c-1.503,0 -1.452,0.348 0.437,3.002m-10.318,3.336c-2.225,7.058 -2.151,7.998 1.011,12.776l2.695,4.072l1.241,-6.084c0.682,-3.346 1.515,-6.527 1.849,-7.068c0.601,-0.973 -3.448,-9.011 -4.546,-9.026c-0.312,-0.005 -1.325,2.394 -2.25,5.33m18.273,-0.952c2.886,3.035 9.648,6.343 10.738,5.254c0.168,-0.169 -1.156,-1.941 -2.944,-3.938c-2.314,-2.585 -4.402,-3.821 -7.25,-4.291l-4,-0.659l3.456,3.634m-80.438,-0.415c-0.272,0.439 -2.636,1.114 -5.256,1.501c-2.619,0.386 -13.312,2.662 -23.762,5.057c-10.45,2.395 -23.05,5.074 -28,5.954c-17.645,3.137 -27.476,5.652 -28.376,7.259c-0.582,1.041 -0.093,3.83 1.433,8.169c1.274,3.624 2.572,7.799 2.884,9.278c0.815,3.867 11.928,9.382 15.878,7.88c1.48,-0.563 8.201,-1.955 14.936,-3.094c14.291,-2.416 61.463,-11.629 67.13,-13.109l3.884,-1.016l-0.594,-5.685c-0.327,-3.127 -1.33,-7.964 -2.23,-10.75c-1.6,-4.954 -1.808,-5.143 -9.535,-8.653c-4.345,-1.973 -8.121,-3.229 -8.392,-2.791m90.513,2.774c2.326,2.771 4.565,4.332 6.818,4.755c1.846,0.346 3.51,0.474 3.7,0.285c0.806,-0.807 -6.84,-7.785 -8.53,-7.785c-1.021,0 -2.664,-0.31 -3.653,-0.69c-1.181,-0.453 -0.609,0.726 1.665,3.435m11.271,2.572c1.898,2.3 4.212,4.335 5.144,4.52c2.989,0.594 -2.67,-7.119 -5.847,-7.969l-2.748,-0.735l3.451,4.184m-103.765,-2.587c-1.476,0.375 -0.732,0.966 3,2.384c8.211,3.118 12.164,1.904 4.627,-1.422c-3.966,-1.749 -4.339,-1.796 -7.627,-0.962m110.369,4.151c1.794,2.266 3.34,4.119 3.435,4.119c0.095,0 1.626,0.417 3.404,0.927l3.232,0.927l-3.228,-4.177c-1.776,-2.297 -3.233,-4.237 -3.239,-4.31c-0.005,-0.073 -1.553,-0.464 -3.438,-0.869l-3.428,-0.735l3.262,4.118m-118.906,-1.975c0,1.487 9.06,4.117 11.806,3.428c2.39,-0.6 2.282,-0.739 -1.885,-2.429c-4.782,-1.94 -9.921,-2.457 -9.921,-0.999m80.609,4.828c-0.945,3.171 -1.805,7.116 -1.913,8.766l-0.196,3l42.5,10.667c23.375,5.867 42.775,10.705 43.111,10.75c0.336,0.046 0.9,-2.054 1.255,-4.667c0.354,-2.613 1.03,-6.654 1.501,-8.981l0.857,-4.23l-3.612,-0.608c-1.987,-0.334 -11.037,-2.583 -20.112,-4.997c-9.075,-2.414 -25.95,-6.669 -37.5,-9.457c-11.55,-2.787 -21.714,-5.279 -22.587,-5.538c-1.202,-0.356 -2.003,0.927 -3.304,5.295m-87.102,-3.815c-1.823,0.711 -1.721,0.919 1.2,2.429c1.757,0.909 4.904,1.632 6.993,1.607l3.8,-0.045l-4.5,-2.41c-5.045,-2.702 -4.772,-2.644 -7.493,-1.581m132.321,0.736c1.743,3.216 6.565,7.176 9.672,7.943l3,0.742l-3.404,-3.92c-3.717,-4.281 -4.454,-4.828 -7.932,-5.894c-2.046,-0.627 -2.212,-0.486 -1.336,1.129m-141.321,1.264c-1.823,0.711 -1.721,0.919 1.2,2.429c3.398,1.758 9.293,2.244 9.293,0.767c0,-1.317 -4.663,-4.125 -6.715,-4.045c-0.982,0.039 -2.682,0.421 -3.778,0.849m37.993,0.662c-0.55,0.227 -19.675,4.188 -42.5,8.801c-22.825,4.613 -41.494,8.777 -41.486,9.253c0.03,1.948 3.755,15.413 4.368,15.792c0.677,0.418 43.508,-7.786 70.751,-13.553l15.132,-3.203l-0.535,-4.086c-1.356,-10.355 -3.018,-14.127 -5.73,-13.004m114.554,3.158c1.895,2.056 3.446,3.8 3.446,3.876c0,0.075 1.016,0.449 2.257,0.831l2.258,0.693l-2.154,-3.65c-1.958,-3.318 -5.17,-5.489 -8.122,-5.489c-0.622,0 0.419,1.683 2.315,3.739m-161.054,-1.803c-2.437,0.718 -2.402,0.779 1.372,2.4c4.225,1.816 5.611,1.991 8.116,1.03c1.373,-0.527 1.176,-0.948 -1.168,-2.493c-2.989,-1.971 -4.307,-2.119 -8.32,-0.937m166.98,2.027c1.358,2.537 6.874,7.037 8.627,7.037c1.102,0 0.903,-0.785 -0.824,-3.25c-1.252,-1.787 -2.329,-3.376 -2.394,-3.531c-0.064,-0.154 -1.527,-0.685 -3.251,-1.179c-2.845,-0.816 -3.043,-0.732 -2.158,0.923m-174.735,-0.135c-1.994,1.265 5.316,4.32 8.454,3.533l2.603,-0.654l-3.401,-1.811c-3.745,-1.996 -5.754,-2.276 -7.656,-1.068m181.755,0.969c0,1.042 7.339,8.203 8.407,8.203c1.112,0 -2.121,-5.075 -4.619,-7.25c-2.131,-1.856 -3.788,-2.273 -3.788,-0.953m-191.434,1.097c-0.964,1.559 6.907,4.075 10.067,3.218l2.867,-0.777l-3.2,-1.668c-3.449,-1.796 -8.837,-2.225 -9.734,-0.773m-6.479,0.98c-2.288,0.64 -2.205,0.769 1.608,2.489c2.212,0.997 5.098,1.661 6.414,1.475c2.231,-0.315 2.136,-0.489 -1.416,-2.588c-2.094,-1.238 -3.894,-2.205 -4,-2.15c-0.106,0.055 -1.279,0.403 -2.606,0.774m204.928,-0.336c-0.02,1.38 5.649,8.101 6.294,7.462c0.278,-0.275 -1.022,-2.3 -2.887,-4.5c-1.866,-2.2 -3.399,-3.533 -3.407,-2.962m-215.449,2.356c-0.613,0.991 6.434,4.106 9.288,4.106c3.111,0 3.274,-1.276 0.404,-3.168c-2.888,-1.905 -8.745,-2.471 -9.692,-0.938m-6.316,0.812c-3.032,0.584 -2.835,1.82 0.5,3.138c8.364,3.306 12.804,2.267 6.241,-1.461c-2.307,-1.311 -4.262,-2.322 -4.343,-2.247c-0.081,0.075 -1.16,0.331 -2.398,0.57m-7.092,2.175c-1.776,1.126 6.898,5.418 9.179,4.543c1.184,-0.454 0.352,-1.261 -3.111,-3.018c-2.599,-1.319 -4.726,-2.393 -4.726,-2.387c0,0.007 -0.604,0.394 -1.342,0.862m-1.157,2.355c0,0.145 0.9,2.631 2,5.525c1.099,2.893 1.999,6.298 1.999,7.566c0,1.636 1.127,2.938 3.886,4.489c2.138,1.201 4.118,2.184 4.4,2.184c0.518,0 -2.851,-14.006 -3.459,-14.382c-0.18,-0.111 -2.24,-1.426 -4.577,-2.924c-2.338,-1.497 -4.25,-2.603 -4.249,-2.458m342.999,3.41c-10.434,4.024 -10.329,3.829 -9.586,17.854c0.35,6.6 0.902,14.925 1.226,18.5l0.589,6.5l-3.365,-3.151c-9.224,-8.637 -15.317,-10.244 -23.614,-6.228c-12.525,6.063 -12.792,22.461 -0.563,34.642c8.288,8.257 15.927,10.257 23.813,6.237c2.158,-1.1 4.214,-2 4.569,-2c0.356,0 0.964,5.015 1.352,11.144l0.705,11.144l5.545,6.278c5.168,5.849 5.794,6.251 9.187,5.886c2.003,-0.215 5.892,-1.259 8.642,-2.321l5,-1.93l-0.053,-23.351c-0.041,-18.304 -0.638,-28.733 -2.76,-48.259l-2.707,-24.91l-3.557,-4.34c-4.153,-5.069 -5.32,-5.206 -14.423,-1.695m2.5,1.435c-2.75,1.084 -6.022,2.491 -7.271,3.126l-2.272,1.154l3.218,3.319c1.769,1.826 3.519,3.32 3.887,3.32c0.368,0 3.962,-1.525 7.986,-3.389l7.318,-3.39l-3.406,-3.11c-1.873,-1.711 -3.643,-3.086 -3.933,-3.056c-0.29,0.03 -2.777,0.941 -5.527,2.026m-277.5,10.996c-55.999,10.889 -61.202,11.93 -61.959,12.398c-0.931,0.575 2.34,17.357 3.595,18.448c1.665,1.446 11.837,5.327 13.963,5.327c1.18,0 8.841,-1.605 17.024,-3.566c8.182,-1.961 28.039,-5.921 44.127,-8.799c21.237,-3.8 29.25,-5.602 29.25,-6.578c0,-0.879 -0.781,-1.169 -2.25,-0.838c-1.237,0.279 -14.85,2.772 -30.25,5.539c-15.4,2.768 -34.312,6.599 -42.027,8.512c-7.716,1.914 -14.486,3.48 -15.047,3.48c-1.292,0 -5.638,-13.197 -4.657,-14.142c1.023,-0.984 15.459,-3.856 19.439,-3.867c1.811,-0.005 7.792,-1.163 13.292,-2.572c10.198,-2.613 51.772,-11.419 53.914,-11.419c0.673,0 1.665,2.832 2.309,6.593c1.207,7.044 1.603,7.942 3.096,7.019c1.237,-0.765 -1.658,-14.551 -3.514,-16.731c-0.758,-0.891 -3.386,-1.894 -5.841,-2.231c-2.454,-0.336 -5.475,-0.818 -6.713,-1.071c-1.238,-0.253 -13.726,1.771 -27.751,4.498m267,-2.315c0,1.228 1.575,3.976 3.5,6.106c1.925,2.131 3.487,4.495 3.471,5.253c-0.017,0.768 -1.339,-0.06 -2.986,-1.871c-1.626,-1.787 -3.126,-3.25 -3.332,-3.25c-1.399,0 1.243,6.192 4.047,9.484c2.065,2.425 2.93,4.139 2.209,4.38c-0.652,0.217 -1.542,-0.226 -1.978,-0.985c-0.437,-0.758 -1.486,-2.279 -2.331,-3.379c-1.518,-1.976 -1.537,-1.972 -1.568,0.279c-0.018,1.254 1.797,4.594 4.033,7.422l4.064,5.142l-0.675,-11.422l-0.674,-11.421l-3.89,-3.985c-3.502,-3.588 -3.89,-3.763 -3.89,-1.753m-242,0.238c0,0.55 0.81,1 1.8,1c0.99,0 2.227,0.382 2.75,0.849c0.523,0.466 2.075,0.539 3.45,0.161c2.345,-0.646 2.252,-0.76 -1.5,-1.844c-4.922,-1.421 -6.5,-1.462 -6.5,-0.166m257.75,1.663c-6.778,3.094 -6.435,0.9 -4.283,27.337c1.43,17.556 3.181,41.341 4.178,56.75c0.612,9.44 0.918,9.658 8.728,6.203l4.627,-2.047l0.028,-17.703c0.024,-14.657 -2.814,-57.386 -4.645,-69.953c-0.57,-3.911 -1.249,-3.958 -8.633,-0.587m-264.191,-0.763c-1.575,0.617 -1.129,0.966 2.368,1.853c5.803,1.473 8.497,0.384 3.422,-1.383c-2.117,-0.737 -3.849,-1.315 -3.849,-1.285c0,0.031 -0.873,0.397 -1.941,0.815m-9.45,1.809c-2.357,0.935 5.98,3.223 9.312,2.556l3.079,-0.616l-3,-1.279c-3.125,-1.333 -7.007,-1.606 -9.391,-0.661m-7.609,1.345c-2.632,0.554 -2.755,0.721 -1,1.362c1.1,0.401 2.714,1.105 3.587,1.564c0.874,0.459 3.093,0.526 4.932,0.15l3.344,-0.684l-3.931,-1.512c-2.326,-0.894 -5.158,-1.254 -6.932,-0.88m-9,1.623c-4.738,1.042 -4.964,1.551 -1.271,2.871c3.657,1.307 10.771,0.93 10.771,-0.57c0,-0.419 -1.083,-1.033 -2.407,-1.365c-1.324,-0.333 -3.012,-0.778 -3.75,-0.99c-0.739,-0.212 -2.243,-0.187 -3.343,0.054m-9,1.887c-0.55,0.144 -2.35,0.58 -4,0.969l-3,0.708l3.5,1.303c6.949,2.588 13.706,1.103 7.755,-1.704c-1.79,-0.845 -3.705,-1.419 -4.255,-1.276m-13,2.35l-3,0.664l4.605,1.792c2.533,0.985 5.908,1.627 7.5,1.427l2.895,-0.364l-4,-1.914c-2.2,-1.052 -4.225,-1.994 -4.5,-2.092c-0.275,-0.098 -1.85,0.121 -3.5,0.487m96.889,0.991c-4.429,2.7 -7.577,7.58 -8.145,12.627c-0.719,6.375 0.191,8.689 5.855,14.886l5.102,5.582l-17.578,0c-17.351,0 -17.597,0.03 -19.118,2.352c-1.805,2.754 -4.671,12.153 -4.698,15.402c-0.018,2.306 2.742,5.235 7.193,7.634c3.605,1.942 58.882,3.959 73.154,2.669c21.506,-1.943 20.387,-1.577 22.231,-7.285c2.861,-8.86 2.368,-10.644 -4.429,-16.022l-6.003,-4.75l-11.946,0l-11.947,0l2.47,-3.64c6.342,-9.345 0.035,-22.551 -14.02,-29.355c-5.433,-2.63 -13.896,-2.677 -18.121,-0.1m-108.286,0.966c-2.081,0.582 -1.683,0.896 3.013,2.377c3.608,1.137 6.392,1.443 8.352,0.919l2.94,-0.786l-4.224,-1.691c-4.444,-1.778 -6.16,-1.917 -10.081,-0.819m110.558,1.046c-1.559,0.569 -1.295,0.965 1.732,2.595c2.4,1.293 3.902,1.593 4.579,0.916c1.411,-1.411 -3.928,-4.381 -6.311,-3.511m6.78,0.624c2.204,1.656 4.994,1.972 4.059,0.459c-0.34,-0.55 -0.168,-1 0.382,-1c0.55,0 1.278,0.45 1.618,1c0.34,0.55 1.829,0.986 3.309,0.97c4.764,-0.054 -0.348,-2.16 -6.182,-2.547c-4.678,-0.311 -4.957,-0.213 -3.186,1.118m-126.369,0.181c-2.089,0.824 6.917,3.966 9.83,3.429c2.313,-0.426 2.276,-0.509 -1,-2.255c-3.441,-1.833 -6.224,-2.203 -8.83,-1.174m115.014,1.674c-0.905,1.091 -0.425,1.796 2.323,3.418c2.802,1.653 3.671,1.795 4.545,0.741c1.047,-1.261 0.417,-1.929 -4.591,-4.866c-0.625,-0.367 -1.65,-0.049 -2.277,0.707m-123.086,0.084c0,0.263 1.773,1.384 3.94,2.49c2.885,1.471 4.559,1.77 6.25,1.115c2.224,-0.861 2.171,-0.954 -1.408,-2.49c-3.499,-1.501 -8.782,-2.172 -8.782,-1.115m-1.489,4.748c1.618,10.786 1.671,10.885 7.171,13.312l5.148,2.272l-0.988,-3.156c-2.877,-9.182 -4.062,-11.263 -7.942,-13.944l-4.034,-2.788l0.645,4.304m121.831,-0.677c-0.342,0.893 0.414,2.675 1.781,4.199l2.377,2.649l-2.898,-1.82l-2.897,-1.819l0.573,4.273c0.363,2.707 1.516,5.215 3.147,6.847l2.575,2.575l0,-4.681c0,-2.574 0.541,-5.868 1.203,-7.32c1.074,-2.357 0.94,-2.841 -1.25,-4.525c-3.003,-2.308 -3.844,-2.377 -4.611,-0.378m15.158,-0.832c-7.169,1.747 -10.785,12.848 -6.462,19.842c2.273,3.678 9.079,7.439 13.462,7.439c3.8,0 10.968,-3.54 12.786,-6.314c4.13,-6.302 1.989,-15.719 -4.468,-19.656c-3.213,-1.959 -10.202,-2.557 -15.318,-1.311m232.67,-0.003c-3.787,0.722 -9.719,7.429 -10.946,12.375c-2.068,8.345 1.652,19.359 9.071,26.852c8.16,8.242 21.056,6.378 25.334,-3.661c1.82,-4.271 1.74,-12.983 -0.169,-18.406c-1.862,-5.288 -9.474,-13.415 -14.96,-15.969c-4.106,-1.912 -4.355,-1.948 -8.33,-1.191m0.83,2.955c0,0.369 0.745,1.494 1.655,2.5c0.91,1.006 1.161,1.829 0.557,1.829c-0.604,0 -1.763,-0.949 -2.575,-2.108c-1.498,-2.139 -3.637,-1.838 -3.637,0.512c0,0.707 0.788,1.996 1.75,2.864c1.52,1.371 2.078,1.396 4.25,0.19c1.375,-0.763 4.075,-1.417 6,-1.454l3.5,-0.067l-2.806,-2.469c-2.546,-2.24 -8.694,-3.511 -8.694,-1.797m-42.227,2.923c0.299,1.563 2.086,4.989 3.972,7.614c1.886,2.625 3.243,5.328 3.016,6.008c-0.226,0.68 -1.728,-1.003 -3.336,-3.74c-2.819,-4.795 -2.937,-4.874 -3.246,-2.178c-0.231,2.011 0.741,4.19 3.455,7.75c2.078,2.724 3.974,4.952 4.216,4.952c0.241,0 0.191,-3.272 -0.111,-7.27c-0.51,-6.744 -0.838,-7.586 -4.529,-11.624c-3.839,-4.199 -3.961,-4.253 -3.437,-1.512m-23.773,-0.716c0,0.482 0.675,1.437 1.5,2.122c0.825,0.685 1.484,1.752 1.464,2.372c-0.02,0.621 -1.087,-0.156 -2.371,-1.726c-2.013,-2.462 -2.628,-2.698 -4.467,-1.714l-2.132,1.141l2.191,2.964c2.544,3.441 2.466,3.425 7.161,1.463c1.974,-0.825 5.249,-1.5 7.277,-1.5c3.62,0 3.654,-0.036 1.882,-1.994c-2.623,-2.899 -12.505,-5.371 -12.505,-3.128m58.657,2.573c-0.306,0.798 0.289,2.486 1.322,3.75c1.433,1.753 2.16,2.023 3.063,1.136c0.909,-0.893 0.752,-1.754 -0.679,-3.718c-2.149,-2.948 -2.928,-3.194 -3.706,-1.168m-67.069,1.407c-0.969,1.568 0.066,4.519 2.294,6.535c1.472,1.332 2.04,1.405 2.896,0.374c0.788,-0.949 0.345,-2.166 -1.704,-4.676c-1.822,-2.233 -3.014,-2.996 -3.486,-2.233m65.319,1.642c-0.288,2.099 0.328,5.049 1.304,6.239c1.142,1.393 2.801,0.765 2.767,-1.048c-0.029,-1.564 -3.892,-6.49 -4.071,-5.191m10.812,1.277c-4.114,2.548 -7.11,9.374 -6.311,14.375c1.626,10.165 7.241,15.486 15.375,14.569c6.799,-0.766 9.515,-4.043 10.028,-12.096c0.515,-8.083 -1.066,-12.955 -5.237,-16.136c-3.899,-2.974 -9.722,-3.273 -13.855,-0.712m-78.239,2.462c0.089,2.721 2.213,6.761 3.555,6.761c1.707,0 0.96,-3.418 -1.368,-6.261c-2.189,-2.674 -2.258,-2.69 -2.187,-0.5m14.775,-0.75c-6.293,2.735 -7.92,5.349 -8.127,13.058c-0.313,11.665 4.686,17.448 15.087,17.451c11.818,0.004 18.021,-15.445 10.277,-25.598c-4.496,-5.894 -10.826,-7.698 -17.237,-4.911m51.745,4.738c0,1.823 1.773,3.334 2.757,2.349c0.343,-0.343 -0.137,-1.384 -1.067,-2.314c-1.558,-1.559 -1.69,-1.562 -1.69,-0.035m-67,3.028c0,0.825 0.675,2.06 1.5,2.745c1.22,1.012 1.5,0.965 1.5,-0.255c0,-0.825 -0.675,-2.06 -1.5,-2.745c-1.22,-1.012 -1.5,-0.965 -1.5,0.255m-59.5,5.374c-6.05,1.307 -11.946,2.866 -13.102,3.464c-1.982,1.024 -2.023,1.317 -0.722,5.093c1.972,5.724 4.757,25.808 3.702,26.7c-0.483,0.408 -5.576,1.769 -11.318,3.025c-5.741,1.255 -11.426,2.658 -12.633,3.117l-2.193,0.834l2.801,12.117c1.541,6.665 3.284,12.7 3.874,13.412c0.591,0.711 0.778,1.589 0.416,1.951c-0.362,0.362 0.204,0.66 1.258,0.662c1.054,0.002 3.267,0.824 4.917,1.826c6.068,3.687 11.619,4.923 16,3.564c6.817,-2.114 7.037,-1.987 9.315,5.356c1.151,3.712 2.382,7.964 2.734,9.447c0.738,3.106 2.494,4.366 11.343,8.142c6.101,2.603 6.602,2.662 11,1.306c2.535,-0.782 9.221,-2.222 14.858,-3.201c7.277,-1.263 10.25,-2.185 10.25,-3.18c0,-1.589 -4.226,-18.333 -6.44,-25.514c-0.805,-2.613 -1.311,-4.75 -1.123,-4.75c1.449,0 17.735,-3.307 20.313,-4.124c1.912,-0.607 3.25,-1.701 3.25,-2.658c0,-3.196 -6.245,-23.606 -7.654,-25.015c-0.79,-0.79 -5.353,-2.778 -10.141,-4.419c-6.442,-2.207 -9.772,-2.837 -12.809,-2.422l-4.103,0.56l-1.767,-6.211c-0.972,-3.416 -2.255,-7.786 -2.851,-9.711c-0.597,-1.925 -0.993,-3.838 -0.88,-4.25c0.113,-0.412 -0.206,-0.75 -0.708,-0.75c-0.502,0 -3.304,-1.575 -6.227,-3.5c-6.12,-4.031 -6.642,-4.052 -21.36,-0.871m97.907,-0.196c0.398,1.613 1.819,4.235 3.158,5.827l2.435,2.893l0,-2.471c0,-1.397 -1.371,-3.928 -3.158,-5.826l-3.158,-3.356l0.723,2.933m29.593,-1.933c0,0.275 0.225,0.5 0.5,0.5c0.275,0 0.5,-0.225 0.5,-0.5c0,-0.275 -0.225,-0.5 -0.5,-0.5c-0.275,0 -0.5,0.225 -0.5,0.5m-67.978,0.782c-0.036,1.27 2.827,7.718 3.427,7.718c1.257,0 0.369,-3.675 -1.449,-6c-1.076,-1.375 -1.966,-2.148 -1.978,-1.718m-53.522,2.269c-2.75,0.714 -7.653,1.828 -10.895,2.475c-6.524,1.302 -6.349,1.734 1.979,4.893l5.084,1.929l8.416,-2.345c4.629,-1.29 9.541,-2.499 10.916,-2.687c2.309,-0.315 2.15,-0.55 -2.088,-3.078c-5.033,-3.004 -6.061,-3.095 -13.412,-1.187m-140.5,1.518c5.435,4.4 7.082,5.249 8.136,4.195c1.399,-1.399 -5.025,-6.271 -8.23,-6.242l-2.406,0.022l2.5,2.025m9.457,1.456l3.848,3.524l15.245,-0.274l15.245,-0.275l-4.824,-3.324c-3.303,-2.275 -5.714,-3.221 -7.647,-3c-2.681,0.308 -2.573,0.447 2.123,2.758c2.72,1.339 4.442,2.603 3.824,2.809c-1.294,0.431 -8.829,-3.218 -9.762,-4.729c-0.345,-0.558 -2.055,-1.014 -3.8,-1.014l-3.173,0l3.943,2.68c2.169,1.473 3.396,2.862 2.728,3.084c-0.669,0.223 -2.599,-0.758 -4.289,-2.179c-3.082,-2.594 -7.536,-4.3 -8.558,-3.279c-0.3,0.301 0.846,1.266 2.547,2.146c1.701,0.88 3.093,2.038 3.093,2.574c0,1.669 -1.585,1.085 -5.5,-2.026c-2.076,-1.65 -4.926,-3 -6.333,-3c-2.5,0 -2.471,0.08 1.29,3.525m41.293,-2.836c-0.963,0.252 -1.75,0.866 -1.75,1.364c0,1.316 7.523,4.95 10.21,4.932c2.061,-0.013 1.889,-0.36 -1.71,-3.462c-2.2,-1.896 -4.225,-3.413 -4.5,-3.369c-0.275,0.043 -1.287,0.284 -2.25,0.535m7.365,1.105c5.014,3.771 7.907,5.206 10.494,5.206c2.542,0 2.445,-0.178 -1.905,-3.5c-3.03,-2.313 -5.667,-3.5 -7.779,-3.5l-3.195,0l2.385,1.794m11.839,1.732c3.013,1.919 6.755,3.474 8.362,3.474c2.796,0 2.712,-0.135 -2.18,-3.5c-3.319,-2.284 -6.226,-3.491 -8.362,-3.474l-3.274,0.025l5.454,3.475m9.346,-0.023c7.452,4.493 9.807,4.492 4.832,-0.003c-2.82,-2.547 -4.794,-3.499 -7.253,-3.497c-3.378,0.002 -3.377,0.003 2.421,3.5m-86.208,3.689c-2.764,8.187 -2.648,10.02 0.795,12.566c3.138,2.321 4.111,2.043 4.117,-1.175c0.002,-1.146 0.902,-3.556 2,-5.357c2.582,-4.235 2.52,-6.406 -0.254,-8.903c-4.151,-3.737 -4.474,-3.598 -6.658,2.869m50.158,-3.434c1.512,0.938 2.75,2.051 2.75,2.474c0,0.422 1.454,0.768 3.232,0.768l3.232,0l-3.679,-2.5c-2.023,-1.375 -4.715,-2.488 -5.982,-2.473c-2.234,0.025 -2.221,0.077 0.447,1.731m269.372,4.254c-3.864,3.912 -5.406,6.1 -4.5,6.382c0.758,0.236 2.88,0.91 4.715,1.496c3.613,1.155 2.733,1.757 12.059,-8.256l2.395,-2.573l-2.395,-0.897c-6.18,-2.314 -6.193,-2.31 -12.274,3.848m-81.009,-0.828c-0.35,1.751 -0.219,3.442 0.292,3.757c0.51,0.316 2.316,2.32 4.011,4.454c3.008,3.785 3.084,3.816 3.084,1.258c0,-2.118 -5.379,-12.653 -6.461,-12.653c-0.159,0 -0.576,1.433 -0.926,3.184m-109.613,-0.637c0,0.833 0.787,1.781 1.75,2.105c0.963,0.324 3.686,1.486 6.052,2.583c2.366,1.097 4.579,1.717 4.917,1.379c0.803,-0.803 0.808,-0.8 -6.469,-4.449c-4.874,-2.444 -6.25,-2.801 -6.25,-1.618m26.715,1.963c-5.931,1.224 -11.015,2.457 -11.298,2.739c-0.553,0.553 4.795,24.564 6.422,28.834c0.542,1.421 0.687,3.022 0.323,3.557c-0.95,1.397 -5.621,3.059 -13.662,4.863c-3.85,0.863 -8.638,2.007 -10.641,2.542l-3.641,0.973l2.38,7.493c1.308,4.121 2.672,9.328 3.031,11.571c0.571,3.573 0.913,3.997 2.762,3.428c7.07,-2.18 20.442,-5.473 22.291,-5.49c3.503,-0.032 5.803,4.609 8.589,17.33c1.427,6.517 2.811,12.066 3.076,12.331c0.265,0.264 1.399,-0.01 2.52,-0.61c1.121,-0.6 6.956,-2.027 12.968,-3.172c9.096,-1.732 10.862,-2.36 10.524,-3.74c-0.223,-0.913 -1.971,-7.921 -3.883,-15.575c-1.913,-7.654 -3.334,-14.059 -3.159,-14.234c0.175,-0.176 5.363,-1.163 11.527,-2.194c6.165,-1.032 11.436,-2.103 11.714,-2.381c0.442,-0.442 -5.211,-22.761 -5.952,-23.502c-0.3,-0.301 -5.716,0.703 -17.106,3.169c-8.609,1.864 -8.564,1.907 -11.489,-10.806c-3.018,-13.117 -4.96,-19.657 -5.789,-19.494c-0.397,0.078 -5.575,1.144 -11.507,2.368m-270.715,12.431c0,7.756 0.423,14.202 0.953,14.53c0.524,0.324 3.224,3.813 6,7.753c5.278,7.492 6.453,11.776 3.229,11.776c-1,0 -3.7,1.446 -6,3.214l-4.182,3.214l0,11.384l0,11.384l2.9,-1.848c2.508,-1.599 6.409,-4.634 17.801,-13.848l2.473,-2l2.408,3c1.324,1.65 2.41,3.513 2.413,4.14c0.007,1.553 7.82,11.903 12.908,17.099l4.151,4.24l5.395,-4.394l5.395,-4.394l-3.63,-6.136c-1.996,-3.375 -7.13,-10.628 -11.407,-16.118l-7.777,-9.981l5.735,-3.619c12.481,-7.875 18.945,-12.404 23.591,-16.527l4.856,-4.31l-2.767,-5.843c-1.522,-3.214 -3.397,-6.085 -4.166,-6.38c-0.769,-0.295 -2.609,0.581 -4.089,1.946c-5.134,4.739 -26.043,19.777 -27.497,19.777c-0.805,0 -2.268,-1.238 -3.252,-2.75c-4.787,-7.36 -23.17,-29.25 -24.563,-29.25c-0.483,0 -0.878,6.273 -0.878,13.941m444.082,-7.524l-5.35,5.417l4.384,5.755c6.585,8.645 6.884,8.427 6.884,-5.006c0,-6.37 -0.128,-11.583 -0.284,-11.583c-0.156,0 -2.692,2.438 -5.634,5.417m-398.588,-3.408c-0.312,0.506 1.743,2.091 4.568,3.523c6.843,3.467 5.698,4.221 -1.545,1.018c-5.292,-2.341 -7.517,-2.548 -7.517,-0.699c0,0.403 2.441,1.93 5.425,3.393l5.426,2.661l2.646,-2.081c1.455,-1.145 2.276,-2.45 1.824,-2.9c-1.968,-1.964 -10.31,-5.75 -10.827,-4.915m79.696,2.692c-1.046,2.089 -2.17,5.21 -2.498,6.935l-0.596,3.135l32.202,0.68c23.978,0.506 35.117,0.344 43.616,-0.636l11.414,-1.315l1.759,-5c0.967,-2.75 1.793,-5.45 1.835,-6c0.05,-0.648 -15.04,-1.105 -42.877,-1.299l-42.954,-0.299l-1.901,3.799m119.825,-1.951c0.041,1.974 2.216,3.65 7.554,5.819c3.205,1.303 5.938,2.257 6.075,2.121c0.72,-0.721 -1.744,-2.757 -6.725,-5.555c-5.798,-3.257 -6.929,-3.648 -6.904,-2.385m107.985,5.396c0,2.356 1.146,4.371 4.558,8.019c4.324,4.623 4.54,4.731 4.216,2.104c-0.291,-2.36 -7.171,-13.269 -8.368,-13.269c-0.223,0 -0.406,1.416 -0.406,3.146m-314.877,-0.222c-0.888,0.549 0.196,1.659 3.523,3.609c2.644,1.549 4.287,2.989 3.653,3.201c-0.634,0.211 -2.966,-0.761 -5.182,-2.16c-3.635,-2.295 -7.117,-2.588 -7.117,-0.6c0,0.418 1.841,1.979 4.092,3.468c2.25,1.489 3.824,2.975 3.498,3.301c-0.326,0.327 -2.657,-0.889 -5.18,-2.7c-4.059,-2.915 -4.758,-3.123 -6.074,-1.808c-1.315,1.316 -0.96,1.795 3.089,4.168c2.516,1.475 4.575,3.139 4.575,3.698c0,1.209 -1.236,0.547 -6.232,-3.339c-5.582,-4.34 -6.772,-2.361 -1.692,2.815c4.141,4.22 4.324,4.295 6.429,2.633c1.192,-0.94 4.936,-3.808 8.32,-6.371l6.154,-4.661l-4.74,-2.732c-2.606,-1.502 -4.985,-2.863 -5.287,-3.023c-0.301,-0.16 -1.124,0.065 -1.829,0.501m207.877,1.446c0,0.871 1.02,2.252 2.266,3.069c2.751,1.802 10.88,4.748 11.471,4.157c1.203,-1.203 -2.215,-4.576 -5.969,-5.89c-2.347,-0.822 -5.055,-1.815 -6.018,-2.207c-1.23,-0.501 -1.75,-0.242 -1.75,0.871m184,-0.256c0,1.064 3.432,2.886 5.434,2.886c2.768,0 1.672,-1.478 -1.934,-2.606c-1.925,-0.603 -3.5,-0.729 -3.5,-0.28m4.036,5.262c0.805,0.757 2.814,1.663 4.464,2.015l3,0.64l-2.361,-2.016c-2.776,-2.37 -7.587,-2.972 -5.103,-0.639m-186.352,1.523c0.544,2.083 7.378,5.128 11.349,5.057c1.787,-0.032 0.537,-0.989 -4.533,-3.472c-3.85,-1.885 -7.07,-3.44 -7.156,-3.456c-0.086,-0.015 0.067,0.826 0.34,1.871m105.856,1.661c0.386,2.167 1.704,5.065 2.928,6.44c1.224,1.375 2.969,3.613 3.879,4.973l1.653,2.472l0,-2.885c0,-2.848 -4.672,-11.213 -7.636,-13.673c-1.34,-1.112 -1.44,-0.786 -0.824,2.673m-59.54,0.501c-2.441,0.657 -2.413,0.711 1.218,2.306c2.045,0.898 4.307,1.633 5.027,1.633c0.721,0 2.297,0.691 3.503,1.536c1.625,1.138 3.044,1.314 5.473,0.679c3.202,-0.838 3.227,-0.886 1.062,-2.054c-4.477,-2.415 -13.811,-4.766 -16.283,-4.1m-272,0.465c0,0.289 1.66,2.749 3.688,5.466c2.916,3.906 3.973,4.704 5.049,3.812c1.105,-0.918 0.562,-1.942 -2.897,-5.467c-3.865,-3.938 -5.84,-5.227 -5.84,-3.811m274,-0.026c0,0.275 0.225,0.5 0.5,0.5c0.275,0 0.5,-0.225 0.5,-0.5c0,-0.275 -0.225,-0.5 -0.5,-0.5c-0.275,0 -0.5,0.225 -0.5,0.5m142,1c1.342,1.616 5,2.068 5,0.617c0,-0.486 -1.012,-1.155 -2.25,-1.487c-3.503,-0.938 -4.095,-0.751 -2.75,0.87m-284.5,1.042c-4.506,1.548 -10.114,7.071 -11.077,10.909c-1.112,4.431 0.56,7.866 6.908,14.192c4.204,4.19 7.443,6.498 10.169,7.247c8.596,2.362 17.57,0.734 22.116,-4.011c3.842,-4.01 4.535,-12.281 1.448,-17.276c-2.584,-4.18 -12.04,-10.368 -17.023,-11.139c-1.948,-0.301 -4.666,-0.716 -6.041,-0.922c-1.375,-0.206 -4.3,0.244 -6.5,1m94.96,0.215c0.297,0.773 0.54,1.82 0.54,2.325c0,0.505 0.787,0.95 1.75,0.988c1.489,0.06 1.451,0.193 -0.25,0.889c-1.677,0.687 -0.896,1.321 4.843,3.93c3.764,1.711 7.224,3.111 7.69,3.111c0.465,0 0.184,-1.912 -0.625,-4.25c-1.391,-4.02 -1.824,-4.362 -7.979,-6.325c-5.095,-1.624 -6.391,-1.77 -5.969,-0.668m49.54,-1.257c0,0.275 0.225,0.5 0.5,0.5c0.275,0 0.5,-0.225 0.5,-0.5c0,-0.275 -0.225,-0.5 -0.5,-0.5c-0.275,0 -0.5,0.225 -0.5,0.5m-7,1.571c0,1.495 6.226,4.921 8.95,4.925c3.166,0.005 1.839,-1.202 -4.2,-3.823c-2.613,-1.133 -4.75,-1.629 -4.75,-1.102m11.866,0.561c1.852,0.808 3.602,1.234 3.889,0.946c0.602,-0.602 -4.3,-2.618 -6.07,-2.496c-0.652,0.044 0.33,0.742 2.181,1.55m-143.866,1.309c0,1.393 1.838,2.277 3.107,1.493c0.771,-0.477 0.696,-0.944 -0.25,-1.544c-1.785,-1.131 -2.857,-1.112 -2.857,0.051m-5,2.008c2.733,2.191 4.5,2.178 4.5,-0.032c0,-0.9 -1.278,-1.518 -3.5,-1.695l-3.5,-0.277l2.5,2.004m288.41,-0.049c1.8,1.99 5.59,3.455 5.59,2.161c0,-1.373 -3.63,-4.061 -5.484,-4.061c-1.731,0 -1.736,0.099 -0.106,1.9m-293.487,0.191c-1.161,0.753 -0.962,1.287 1.077,2.893c2.536,1.997 4.148,2.154 4.654,0.454c0.489,-1.649 -4.162,-4.365 -5.731,-3.347m205.601,2.159c0.697,3.318 6.686,10.62 7.271,8.865c0.311,-0.934 -6.626,-12.115 -7.516,-12.115c-0.241,0 -0.131,1.463 0.245,3.25m-98.524,-0.25c3.957,2.166 5,2.395 5,1.098c0,-0.496 -1.417,-1.396 -3.149,-2c-4.824,-1.682 -5.748,-1.232 -1.851,0.902m36.5,-1c0.34,0.55 1.379,0.993 2.309,0.985c1.457,-0.014 1.484,-0.15 0.191,-0.985c-1.958,-1.266 -3.282,-1.266 -2.5,0m-132.5,1.806c-4.223,2.289 -8.001,7.531 -7.996,11.092c0.005,3.912 3.607,9.041 7.486,10.662c7.107,2.97 17.507,1.138 20.879,-3.677c2.329,-3.325 2.098,-10.019 -0.457,-13.268c-4.464,-5.674 -14.048,-7.989 -19.912,-4.809m-14,1.365c0,0.644 0.745,1.994 1.655,3c1.81,2.001 0.488,2.572 -1.455,0.629c-0.933,-0.933 -1.2,-0.501 -1.2,1.944c0,1.984 0.949,4.18 2.573,5.95l2.574,2.806l-0.506,-2.5c-0.278,-1.375 0.08,-4.171 0.796,-6.213c1.146,-3.268 1.098,-3.897 -0.396,-5.25c-2.015,-1.824 -4.041,-2.007 -4.041,-0.366m89.5,2.74l-11,2.747l6.985,3.215l6.985,3.215l12.945,-2.558c7.12,-1.406 13.113,-2.724 13.317,-2.929c0.619,-0.619 -14.458,-6.607 -16.412,-6.519c-1.001,0.045 -6.77,1.318 -12.82,2.829m210.75,-1.661c0.229,0.688 1.242,1.25 2.25,1.25c1.008,0 2.021,-0.562 2.25,-1.25c0.264,-0.792 -0.561,-1.25 -2.25,-1.25c-1.689,0 -2.514,0.458 -2.25,1.25m-445.25,1.25c0,0.275 0.225,0.5 0.5,0.5c0.275,0 0.5,-0.225 0.5,-0.5c0,-0.275 -0.225,-0.5 -0.5,-0.5c-0.275,0 -0.5,0.225 -0.5,0.5m-1,3c0,0.825 0.702,1.5 1.559,1.5c0.857,0 1.325,0.379 1.039,0.842c-0.604,0.977 6.111,7.782 6.901,6.992c0.914,-0.913 -3.562,-5.833 -5.322,-5.849c-1.29,-0.012 -1.372,-0.209 -0.353,-0.855c1.069,-0.678 1.007,-1.156 -0.322,-2.485c-2.05,-2.05 -3.502,-2.11 -3.502,-0.145m448.5,-0.5c0.34,0.55 0.816,1 1.059,1c0.243,0 0.441,-0.45 0.441,-1c0,-0.55 -0.477,-1 -1.059,-1c-0.582,0 -0.781,0.45 -0.441,1m-226.5,2.914c0,2.033 3.9,5.218 9.25,7.552c5.539,2.417 5.75,2.437 5.75,0.538c0,-1.363 -1.56,-2.761 -5.062,-4.536c-6.898,-3.495 -9.938,-4.582 -9.938,-3.554m-222,3.912c0,1.222 4.441,5.174 5.814,5.174c1.825,0 1.435,-0.877 -1.564,-3.516c-2.866,-2.523 -4.25,-3.063 -4.25,-1.658m224.652,4.09c0.819,3.492 1.056,3.671 7.28,5.493c6.858,2.009 6.988,2 6.358,-0.409c-0.288,-1.1 -1.082,-2 -1.766,-2c-0.683,0 -3.77,-1.275 -6.86,-2.834l-5.619,-2.834l0.607,2.584m221.258,-1.308c-1.134,1.367 -1.048,1.818 0.569,3c1.047,0.766 2.492,1.392 3.212,1.392c1.863,0 1.627,-4.664 -0.273,-5.393c-2.097,-0.805 -1.982,-0.838 -3.508,1.001m-444.91,3.361c0,1.353 0.477,1.785 1.526,1.383c1.176,-0.452 1.262,-0.902 0.377,-1.969c-1.541,-1.857 -1.903,-1.746 -1.903,0.586m439.029,-0.008c-0.809,0.512 -1.259,1.1 -1,1.308c0.259,0.208 1.972,1.416 3.806,2.684c2.965,2.049 3.502,2.138 4.836,0.805c1.333,-1.334 1.168,-1.737 -1.49,-3.629c-3.335,-2.375 -4.034,-2.508 -6.152,-1.168m-5.432,3.344c-1.642,1.201 -1.466,1.516 2.199,3.941c3.478,2.302 4.219,2.464 5.842,1.277c1.022,-0.748 1.635,-1.538 1.36,-1.755c-3.489,-2.77 -6.398,-4.768 -6.942,-4.768c-0.37,0 -1.477,0.587 -2.459,1.305m-208.597,0.57c0,1.993 3.045,3.978 8.312,5.42c5.326,1.458 5.787,1.457 5.5,-0.01c-0.313,-1.608 -13.812,-6.895 -13.812,-5.41m-137.551,5.625c-0.797,1.925 -2.124,5.13 -2.949,7.122c-2.147,5.184 -1.89,7.034 2.056,14.823l3.519,6.945l20.713,7.3c31.512,11.106 64.254,21.508 65.816,20.909c0.768,-0.295 1.396,-1.38 1.396,-2.411c0,-1.031 0.9,-4.491 2,-7.688c1.1,-3.197 2,-6.63 2,-7.629c0,-0.999 -2.307,-4.71 -5.126,-8.247l-5.125,-6.431l-13.625,-5.193c-21.916,-8.355 -65.197,-23 -67.971,-23c-0.69,0 -1.907,1.575 -2.704,3.5m340.58,-2.539c-0.809,0.512 -1.259,1.102 -1,1.313c5.959,4.841 7.692,5.651 9.409,4.395c1.662,-1.215 1.566,-1.488 -1.404,-3.987c-3.415,-2.873 -4.688,-3.186 -7.005,-1.721m12.971,5.656c-4.125,3.037 -7.631,6.088 -7.79,6.781c-0.317,1.372 7.858,13.816 9.365,14.255c0.509,0.149 2.178,-0.754 3.709,-2.006c2.78,-2.273 2.784,-2.297 2.5,-13.414l-0.284,-11.137l-7.5,5.521m-353.063,1.861c-3.51,7.742 -3.508,7.71 -0.784,13.339l2.154,4.448l2.64,-7.297l2.64,-7.296l-1.919,-3.878c-2.461,-4.974 -1.57,-5.988 1.174,-1.337c2.327,3.943 5.024,5.081 3.065,1.293c-1.551,-2.998 -4.003,-5.75 -5.125,-5.75c-0.499,0 -2.229,2.915 -3.845,6.478m139.063,-4.408c0,1.458 2.618,3.416 7.821,5.85c5.704,2.668 6.641,2.503 5.365,-0.946c-0.652,-1.762 -2.333,-2.72 -7.021,-4.004c-3.391,-0.928 -6.165,-1.333 -6.165,-0.9m196.6,-0.231c-0.287,0.464 1.017,2.336 2.898,4.159c2.867,2.779 3.668,3.109 4.951,2.044c1.352,-1.122 1.269,-1.473 -0.709,-3.007c-3.562,-2.762 -6.575,-4.111 -7.14,-3.196m-326.6,0.604c0,1.102 4.285,7.557 5.017,7.557c0.451,0 1.643,0.316 2.649,0.702c1.764,0.677 1.763,0.597 -0.02,-2.25c-2.689,-4.295 -7.646,-8.19 -7.646,-6.009m7.742,4.192c2.964,4.158 5.387,6.117 8.543,6.904l2.786,0.696l-2.182,-3.698c-2.071,-3.511 -3.177,-4.268 -8.789,-6.018l-2.4,-0.749l2.042,2.865m-84.139,1.199c-0.319,0.516 0.34,1.179 1.465,1.474c1.246,0.325 1.902,0.101 1.677,-0.574c-0.502,-1.504 -2.428,-2.056 -3.142,-0.9m403.397,-0.4c0,2.399 3.662,8.478 6.776,11.25c3.948,3.514 6.66,4.56 3.891,1.501c-0.903,-0.998 -2.136,-3.136 -2.74,-4.75c-0.97,-2.594 -7.927,-9.616 -7.927,-8.001m-308.307,3.643c2.207,3.758 2.919,4.334 7.1,5.741l3.293,1.108l-2.203,-3.921c-1.355,-2.411 -3.355,-4.323 -5.193,-4.963c-4.546,-1.585 -4.958,-1.305 -2.997,2.035m152.12,-2.394c0.721,0.289 1.584,0.253 1.916,-0.079c0.332,-0.332 -0.258,-0.568 -1.312,-0.525c-1.165,0.048 -1.402,0.285 -0.604,0.604m-8.313,1.28c-2.275,0.935 -2.413,0.854 6.75,3.972c4.031,1.372 5.745,1.6 5.735,0.761c-0.027,-2.077 -1.38,-3.332 -4.884,-4.532c-3.871,-1.325 -4.807,-1.35 -7.601,-0.201m-240.256,2.287c0.225,0.688 1.835,1.391 3.576,1.563c2.529,0.25 3.045,-0.002 2.566,-1.25c-0.733,-1.91 -6.768,-2.218 -6.142,-0.313m76.191,2.412c-1.928,4.442 -4.556,12.551 -4.187,12.919c0.831,0.829 80.292,28.486 82.627,28.758c0.916,0.107 2.162,-2.676 3.734,-8.339c1.298,-4.675 2.367,-8.562 2.375,-8.639c0.009,-0.076 -1.656,-0.452 -3.701,-0.836c-2.044,-0.383 -8.456,-2.512 -14.25,-4.731c-5.793,-2.219 -22.008,-7.99 -36.033,-12.826c-14.025,-4.836 -26.265,-9.097 -27.2,-9.468c-1.299,-0.516 -2.092,0.229 -3.365,3.162m31.565,0.838c1.703,2.475 3.753,4.5 4.557,4.5c1.22,0 1.253,-0.369 0.201,-2.25c-2.052,-3.669 -5.01,-6.75 -6.48,-6.75c-0.91,0 -0.329,1.52 1.722,4.5m5.605,0.563c1.903,3.259 8.219,8.446 9.15,7.515c0.62,-0.619 -5.668,-9.578 -6.721,-9.578c-0.479,0 -1.672,-0.308 -2.651,-0.683c-1.631,-0.626 -1.613,-0.395 0.222,2.746m126.827,-0.479c0.402,1.601 0.855,3.036 1.006,3.188c0.152,0.151 3.265,1.104 6.919,2.117c4.708,1.306 6.643,1.5 6.643,0.668c0,-2.223 -2.51,-4.313 -7,-5.827c-2.475,-0.835 -5.355,-1.865 -6.4,-2.289c-1.689,-0.684 -1.818,-0.447 -1.168,2.143m-235.512,1.82c1.566,1.887 4.428,2.145 3.835,0.346c-0.226,-0.687 -1.48,-1.406 -2.785,-1.596c-2.073,-0.302 -2.206,-0.144 -1.05,1.25m116.996,1.346c4.167,5.582 4.804,6.193 7.547,7.236c2.748,1.045 2.773,1.022 1.321,-1.211c-0.813,-1.251 -2.1,-3.279 -2.861,-4.507c-1.11,-1.793 -5.541,-4.268 -7.64,-4.268c-0.231,0 0.504,1.238 1.633,2.75m254.013,0.741c-4.165,1.18 -8.616,2.877 -9.892,3.77c-3.018,2.114 -9.308,16.413 -8.683,19.739c1.232,6.557 32.832,93.566 34.644,95.392c0.518,0.521 2.258,0.271 4.194,-0.604c1.819,-0.822 6.008,-2.533 9.308,-3.802c7.063,-2.716 9.5,-4.575 9.5,-7.248c0,-1.073 0.739,-5.014 1.642,-8.756l1.643,-6.805l-4.721,-14.838c-7.063,-22.204 -10.896,-33.408 -16.54,-48.339c-2.807,-7.425 -6.489,-17.185 -8.183,-21.689c-1.694,-4.504 -3.589,-8.364 -4.21,-8.577c-0.622,-0.214 -4.538,0.577 -8.702,1.757m-244.086,4.311c5.313,6.359 7.855,7.018 5.104,1.325c-1.029,-2.131 -2.676,-4.105 -3.659,-4.387c-0.983,-0.282 -2.688,-0.878 -3.788,-1.324c-1.361,-0.553 -0.612,0.849 2.343,4.386m-123.343,-1.802c1.807,1.996 4.5,2.715 4.5,1.2c0,-1.458 -2.371,-3.2 -4.355,-3.2c-1.892,0 -1.896,0.065 -0.145,2m366.202,0.55c-4.289,1.217 -7.898,2.378 -8.02,2.581c-1.193,1.982 -4.701,10.183 -4.459,10.426c0.174,0.173 3.784,-0.91 8.023,-2.406c7.332,-2.588 7.829,-2.96 10.197,-7.637c1.368,-2.704 2.391,-4.975 2.273,-5.046c-0.119,-0.072 -3.725,0.865 -8.014,2.082m8.047,1.744c-1.907,4.61 -2.368,8.726 -0.801,7.156c1.785,-1.789 3.811,-7.949 3.18,-9.667c-0.479,-1.302 -1.054,-0.695 -2.379,2.511m-140.035,-1.278c0.677,2.586 1.525,3.07 8.033,4.582c5.204,1.21 5.362,1.184 5.063,-0.827c-0.272,-1.823 -4.983,-3.83 -13.466,-5.736c-0.086,-0.019 0.08,0.872 0.37,1.981m-104.206,2.999c1.406,2.719 7.348,7.462 8.236,6.574c0.249,-0.249 -2.27,-5.195 -4.175,-8.198c-0.038,-0.06 -1.325,-0.411 -2.86,-0.78l-2.791,-0.67l1.59,3.074m-158.032,76.485c0,43.45 0.123,61.079 0.274,39.176c0.15,-21.904 0.15,-57.454 0,-79c-0.151,-21.547 -0.274,-3.626 -0.274,39.824m31.407,-75.719c0.925,1.729 5.117,2.84 5.117,1.357c0,-1.369 -2.387,-3.138 -4.235,-3.138c-1.45,0 -1.635,0.374 -0.882,1.781m132.73,-0.518c2.208,3.821 4.772,6.872 6.59,7.846c1.976,1.057 1.963,0.923 -0.319,-3.154c-1.311,-2.343 -3.419,-4.635 -4.685,-5.094c-1.711,-0.62 -2.117,-0.517 -1.586,0.402m98.847,1.801c-0.416,0.674 10.758,5.936 12.606,5.936c0.514,0 0.932,-0.788 0.929,-1.75c-0.004,-1.328 -1.584,-2.127 -6.557,-3.313c-3.603,-0.859 -6.743,-1.252 -6.978,-0.873m141.067,3.225c-1.315,3.445 -1.413,4.872 -0.497,7.25l1.141,2.961l1.854,-4.845c1.333,-3.484 1.597,-5.52 0.939,-7.25c-0.503,-1.323 -1.113,-2.405 -1.357,-2.405c-0.243,0 -1.179,1.93 -2.08,4.289m-231.407,0.711c1.237,2.2 2.629,4 3.094,4c0.465,0 -0.18,-1.797 -1.434,-3.992c-1.254,-2.196 -2.646,-3.996 -3.094,-4c-0.448,-0.005 0.198,1.792 1.434,3.992m-137.57,-1.071c0.522,0.511 2.3,1.261 3.95,1.666c2.717,0.667 2.871,0.58 1.628,-0.929c-0.755,-0.916 -2.533,-1.666 -3.95,-1.666c-1.603,0 -2.219,0.352 -1.628,0.929m355.95,4.529c-9.893,3.079 -11.811,4.26 -11.173,6.881c0.473,1.941 9.708,28.506 26.374,75.868c3.233,9.188 6.116,16.944 6.406,17.234c0.569,0.568 16.845,-6.03 18.228,-7.39c0.459,-0.452 0.105,-2.234 -0.788,-3.961c-0.893,-1.726 -5.828,-15.616 -10.966,-30.865c-7.637,-22.665 -20.502,-59.377 -20.969,-59.836c-0.061,-0.06 -3.262,0.87 -7.112,2.069m16.702,2.042c-1.663,6.237 -1.694,7.719 -0.252,11.965c1.315,3.871 1.369,3.907 2.3,1.5c2.314,-5.98 2.407,-7.576 0.732,-12.465l-1.713,-5l-1.067,4m3.595,13.454c-1.511,4.727 -1.515,5.518 -0.047,9.825l1.596,4.684l1.856,-5.568c1.794,-5.383 1.796,-5.707 0.047,-9.824l-1.808,-4.257l-1.644,5.14m-150.218,5.296c-0.252,1.238 -0.67,5.98 -0.927,10.538l-0.468,8.289l3.658,4.418c4.026,4.861 5.63,5.504 19.658,7.876c4.95,0.837 17.55,3.086 28,4.997c28.648,5.239 46.456,8.009 47.134,7.332c1.147,-1.147 3.335,-12.202 3.305,-16.7c-0.026,-4.023 -0.58,-5.092 -5.234,-10.089l-5.205,-5.59l-14,-2.176c-7.7,-1.197 -21.2,-3.293 -30,-4.658c-8.8,-1.364 -20.95,-3.368 -27,-4.453c-15.047,-2.697 -18.334,-2.659 -18.921,0.216m5.421,3.25c4.496,4.639 6.994,4.639 3.293,0c-1.536,-1.925 -3.669,-3.5 -4.739,-3.5c-1.653,0 -1.435,0.528 1.446,3.5m3,-2.584c0,1.322 7.103,6.675 9.724,7.329c2.169,0.54 2.158,0.467 -0.443,-2.944c-3.151,-4.13 -9.281,-7.027 -9.281,-4.385m9.041,2.161c1.729,3.231 10.959,8.305 10.959,6.026c0,-1.572 -6.674,-6.887 -9.207,-7.333c-2.346,-0.413 -2.579,-0.239 -1.752,1.307m-16.04,4.423c-0.015,3.3 -0.28,6.939 -0.588,8.086c-0.374,1.393 0.348,3.165 2.175,5.336c3.281,3.899 3.923,3.174 4.806,-5.422c0.597,-5.8 0.501,-6.133 -2.874,-10l-3.49,-4l-0.029,6m153.206,-0.986c-1.364,5.102 -1.576,9.488 -0.457,9.482c1.516,-0.007 4.351,-8.745 3.691,-11.376c-0.948,-3.777 -1.86,-3.243 -3.234,1.894m-126.346,-0.174c3.078,3.191 7.19,5.4 7.103,3.816c-0.099,-1.799 -4.82,-5.97 -7.464,-6.594l-3,-0.708l3.361,3.486m6.139,-0.514c0,1.506 4.457,5.015 7.25,5.708c3.659,0.908 3.526,-0.703 -0.327,-3.945c-2.949,-2.482 -6.923,-3.494 -6.923,-1.763m10.946,3.524c1.896,2.007 4.328,3.65 5.405,3.65c1.834,0 1.854,-0.116 0.304,-1.829c-2.772,-3.062 -1.844,-3.727 1.17,-0.838c1.554,1.488 4.253,3.116 5.998,3.616c2.809,0.806 3.068,0.717 2.267,-0.781c-1.77,-3.307 -4.66,-4.953 -9.742,-5.55c-2.834,-0.333 -5.984,-0.901 -7,-1.262c-1.202,-0.427 -0.643,0.619 1.598,2.994m-34.953,1.9c-0.004,1.238 -0.291,5.255 -0.638,8.929l-0.631,6.679l3.388,0.531c1.863,0.292 16.438,2.787 32.388,5.545c38.529,6.662 49.688,8.278 50.635,7.331c1.373,-1.373 3.357,-15.18 2.318,-16.13c-0.524,-0.479 -16.478,-3.409 -35.453,-6.511c-18.975,-3.101 -38.1,-6.311 -42.5,-7.132c-10.021,-1.871 -9.499,-1.913 -9.507,0.758m52.242,1.277c2.055,1.91 4.665,3.473 5.801,3.473c1.973,0 1.945,-0.158 -0.604,-3.5c-2.063,-2.705 -3.38,-3.494 -5.801,-3.473l-3.131,0.027l3.735,3.473m-121.604,1.839c-4.076,6.956 -14.403,20.333 -16.242,21.038c-0.989,0.38 -4.032,-0.884 -7.758,-3.221c-11.995,-7.525 -17.754,-9.969 -24.867,-10.553l-6.737,-0.552l-4.561,9.439c-5.383,11.14 -5.33,11.382 3.744,17.311c3.459,2.26 10.696,6.97 16.082,10.466l9.791,6.356l-3.291,4.625c-1.811,2.545 -6.554,8.851 -10.542,14.014c-3.988,5.163 -7.25,10.062 -7.25,10.888c0,0.826 2.588,4.234 5.75,7.573c5.216,5.508 6.522,6.313 14.052,8.661c10.086,3.146 10.325,3.152 12.946,0.339c2.898,-3.111 16.252,-21.951 16.252,-22.929c0,-0.909 8.671,4.487 17.45,10.86c5.162,3.747 6.619,4.317 11,4.304c2.778,-0.009 5.515,-0.346 6.084,-0.75c0.569,-0.404 3.198,-3.8 5.843,-7.545c3.625,-5.133 4.664,-7.392 4.217,-9.172c-0.734,-2.925 -7.976,-9.132 -21.251,-18.215l-10.158,-6.951l5.573,-6.926c7.054,-8.767 13.68,-18.95 16.285,-25.027l2.024,-4.72l-2.784,-2.939c-4.123,-4.355 -11.434,-9.185 -14.283,-9.436c-1.375,-0.122 -5.241,-0.514 -8.591,-0.871l-6.092,-0.65l-2.686,4.583m128.241,-2.605c1.502,2.806 4.4,4.937 7.461,5.486l2.833,0.507l-3.786,-3.877c-3.964,-4.059 -8.303,-5.47 -6.508,-2.116m88.329,1.56c-1.312,3.628 -1.519,7.891 -0.556,11.483c0.529,1.979 0.941,1.507 2.906,-3.329c1.846,-4.541 2.092,-6.199 1.272,-8.554c-1.317,-3.777 -2.145,-3.685 -3.622,0.4m-78.322,1.614c2.408,2.236 5.325,4.065 6.483,4.065c1.872,0 1.72,-0.38 -1.379,-3.441c-1.916,-1.892 -4.833,-3.721 -6.483,-4.065c-2.981,-0.62 -2.973,-0.598 1.379,3.441m-135.214,-2.289c-0.809,0.828 12.398,3.542 13.268,2.727c0.239,-0.224 -0.035,-0.875 -0.607,-1.447c-1.355,-1.355 -11.577,-2.388 -12.661,-1.28m-166.421,1.018c-0.691,0.279 -0.976,0.96 -0.634,1.515c0.762,1.232 0.624,15.874 -0.237,25.071l-0.631,6.75l-13.812,0c-8.688,0 -14.056,0.395 -14.47,1.065c-0.577,0.933 -0.725,25.433 -0.17,28.237c0.205,1.042 5.494,5.21 12.94,10.199c3.007,2.015 4.967,2.499 10.111,2.499l6.38,0l0.631,5.25c0.347,2.887 0.635,7.534 0.639,10.326c0.01,5.669 0.499,6.3 10.083,13.017l5.575,3.907l16.416,0l16.417,0l-0.255,-7.5c-0.14,-4.125 -0.526,-11.663 -0.859,-16.75l-0.606,-9.25l13.254,0l13.254,0l-0.724,-13.656c-0.398,-7.51 -1.186,-14.395 -1.75,-15.3c-2.574,-4.121 -18.974,-12.914 -23.412,-12.552l-3.116,0.254l-0.749,-10.123c-0.412,-5.568 -0.772,-10.72 -0.801,-11.449c-0.028,-0.729 -2.564,-3.757 -5.635,-6.73l-5.583,-5.404l-15.5,0.059c-8.525,0.032 -16.065,0.287 -16.756,0.565m310.118,2.893c4.931,4.528 7.685,4.319 4.048,-0.307c-1.75,-2.225 -3.399,-3.248 -5.232,-3.245l-2.678,0.005l3.862,3.547m-134.435,9.7c-10.793,15.952 -14.174,20.535 -15.582,21.124c-0.635,0.266 -5.585,-2.442 -11,-6.018c-12.82,-8.464 -27.207,-16.566 -28.261,-15.915c-1.022,0.631 -5.817,10.64 -6.608,13.792c-0.485,1.933 0.373,2.965 5.425,6.528c3.301,2.328 6.698,4.232 7.55,4.232c0.852,0 1.549,0.403 1.549,0.896c0,0.493 4.325,3.962 9.612,7.709c5.286,3.747 9.825,7.37 10.086,8.051c0.261,0.681 -1.139,2.851 -3.111,4.824c-1.973,1.973 -3.587,4.209 -3.587,4.97c0,0.761 -0.378,1.533 -0.841,1.717c-0.462,0.183 -3.822,4.806 -7.465,10.273c-5.43,8.149 -6.405,10.205 -5.409,11.414c1.495,1.814 12.846,10.146 13.823,10.146c0.801,0 10.359,-13.816 16.414,-23.727c5.744,-9.402 6.348,-9.604 12.236,-4.096c2.693,2.519 6.772,5.764 9.065,7.211c4.482,2.829 14.968,8.612 15.617,8.612c0.217,0 2.263,-2.798 4.547,-6.219l4.153,-6.218l-3.32,-2.769c-5.733,-4.781 -20.096,-14.889 -25.608,-18.022l-5.289,-3.006l1.719,-2.633c0.945,-1.448 3.882,-5.238 6.527,-8.422c5.844,-7.034 11.789,-15.715 14.75,-21.538l2.2,-4.328l-2.557,-3.353c-1.407,-1.844 -3.861,-4.281 -5.454,-5.415l-2.897,-2.063l-8.284,12.243m-169.973,-9.812c0.66,0.795 3.303,2.714 5.873,4.265c4.533,2.735 5.027,2.809 16.482,2.493l11.81,-0.326l-4.31,-3.898l-4.309,-3.897l-13.372,-0.041c-11.551,-0.035 -13.209,0.156 -12.174,1.404m158.627,0.205c-0.346,0.9 -0.49,1.774 -0.321,1.943c0.168,0.169 3.26,0.609 6.869,0.979c5.455,0.559 6.665,0.408 7.165,-0.896c0.477,-1.244 -0.371,-1.695 -4.096,-2.177c-2.584,-0.335 -5.664,-0.805 -6.844,-1.046c-1.36,-0.278 -2.375,0.16 -2.773,1.197m-162.581,0.815c0,0.805 0.94,1.968 2.088,2.582c1.149,0.615 3.849,2.708 6,4.652c3.537,3.195 3.912,3.331 3.912,1.417c0,-1.164 -0.387,-2.116 -0.859,-2.116c-0.473,0 -2.904,-1.8 -5.404,-4c-4.982,-4.386 -5.737,-4.719 -5.737,-2.535m382.657,2.535c-2.589,6.958 -3.023,16 -0.768,16c0.401,0 1.457,-2.277 2.347,-5.059c1.386,-4.333 1.429,-5.59 0.299,-8.75c-0.874,-2.443 -1.509,-3.184 -1.878,-2.191m-222.979,1.397c-0.389,1.015 0.67,1.578 3.87,2.058c2.423,0.363 4.667,1.085 4.988,1.603c0.77,1.247 -2.122,1.185 -6.924,-0.149c-3.066,-0.851 -4.068,-0.797 -4.735,0.256c-1.424,2.247 -1.051,2.594 4.123,3.835c2.75,0.66 5,1.557 5,1.994c0,0.731 -2.322,0.364 -9.074,-1.436c-1.77,-0.472 -2.977,-0.201 -3.863,0.866c-1.457,1.756 -1.71,1.607 6.437,3.8c2.75,0.74 4.55,1.62 4,1.956c-0.55,0.335 -3.59,-0.195 -6.757,-1.179c-3.692,-1.147 -5.979,-1.428 -6.378,-0.783c-0.749,1.213 0.717,2.214 6.542,4.468c5.057,1.957 3.774,2.961 11.624,-9.089c2.473,-3.797 4.378,-7.006 4.233,-7.132c-0.348,-0.302 -10.62,-2.465 -11.706,-2.465c-0.464,0 -1.085,0.629 -1.38,1.397m-159.678,1.365c0,2.195 1.694,3.862 7.75,7.623c3.712,2.306 4.244,2.417 4.2,0.878c-0.045,-1.597 -8.248,-9.196 -10.869,-10.069c-0.595,-0.199 -1.081,0.507 -1.081,1.568m105.548,4.02c-0.336,1.53 -1.945,4.792 -3.575,7.25c-1.631,2.457 -2.966,4.847 -2.969,5.31c-0.002,0.463 2.359,0.688 5.246,0.5c5.099,-0.332 5.317,-0.472 7.562,-4.842c1.271,-2.475 2.936,-5.962 3.699,-7.75l1.387,-3.25l-5.37,0c-5.059,0 -5.404,0.161 -5.98,2.782m-91.427,15.932l0.3,17.715l-2.461,0.686c-1.353,0.377 -8.181,0.73 -15.173,0.785l-12.714,0.1l0.547,11.75c0.301,6.462 0.684,12.216 0.85,12.786c0.199,0.68 3.002,0.791 8.166,0.321c4.325,-0.393 10.461,-0.747 13.635,-0.786c6.121,-0.075 6.043,-0.137 8.234,6.429c0.367,1.1 0.605,7.796 0.53,14.88l-0.137,12.88l2.301,-0.616c1.266,-0.339 7.865,-0.623 14.666,-0.63l12.364,-0.014l-0.719,-16.75l-0.718,-16.75l13.026,0.348l13.027,0.349l-0.503,-11.849c-0.277,-6.516 -0.673,-12.397 -0.88,-13.069c-0.266,-0.861 -4.285,-1.302 -13.669,-1.5l-13.293,-0.279l-0.727,-15.969c-0.4,-8.783 -0.948,-16.546 -1.219,-17.25c-0.363,-0.948 -3.776,-1.281 -13.112,-1.281l-12.62,0l0.299,17.714m-14.121,-13.363c0,1.809 1.282,3.404 4.75,5.905c7.105,5.124 7.25,5.173 7.25,2.448c0,-1.816 -1.486,-3.456 -6,-6.623c-5.921,-4.153 -6,-4.176 -6,-1.73m384.688,5.27c-1.115,3.97 -1.425,6.917 -0.881,8.386c0.814,2.202 0.874,2.177 2.146,-0.893c1.975,-4.768 3.197,-4.792 1.517,-0.029c-1.55,4.392 -1.781,8.328 -0.65,11.052c0.507,1.219 1.222,0.425 2.804,-3.113l2.124,-4.749l-2.671,-8.388l-2.671,-8.387l-1.718,6.121m-168.668,2.607c-0.643,4 -1.368,7.989 -1.612,8.865c-0.546,1.962 2.363,5.765 7.554,9.877c3.599,2.851 5.145,3.274 18.462,5.053c7.993,1.068 22.98,3.524 33.305,5.458c10.324,1.934 24.054,4.497 30.511,5.695c10.34,1.919 14.284,2.015 12.576,0.307c-0.545,-0.545 -26.331,-5.574 -50.816,-9.911c-11.342,-2.009 -36.016,-5.528 -39,-5.562c-0.275,-0.003 -0.352,-3.381 -0.171,-7.508l0.329,-7.502l3.671,0.001c2.019,0.001 8.171,1.09 13.671,2.421c5.5,1.331 13.825,2.913 18.5,3.516c4.675,0.603 18.668,2.731 31.096,4.729l22.597,3.634l-1.35,6.439c-1.309,6.245 -1.096,8.844 0.636,7.773c1.201,-0.742 3.307,-14.067 2.564,-16.216c-0.342,-0.988 -3.192,-3.384 -6.333,-5.324c-5.118,-3.162 -7.678,-3.87 -24.71,-6.835c-10.45,-1.819 -28.225,-5.015 -39.5,-7.101c-11.275,-2.086 -22.82,-4.083 -25.656,-4.437l-5.156,-0.644l-1.168,7.272m7.88,-1.354c2.356,2.974 4.008,4.126 5.917,4.126l2.65,0l-3.484,-3.399c-1.916,-1.87 -4.578,-3.727 -5.917,-4.126c-2.348,-0.701 -2.319,-0.583 0.834,3.399m-5.395,-0.624c-0.293,1.238 -0.946,4.5 -1.451,7.25c-0.901,4.906 -0.849,5.071 2.764,8.799c3.6,3.715 3.696,3.748 4.332,1.5c1.582,-5.593 0.884,-11.791 -1.783,-15.82c-1.448,-2.189 -2.789,-3.979 -2.981,-3.979c-0.191,0 -0.588,1.012 -0.881,2.25m12.562,1.32c1.724,1.778 4.454,3.426 6.066,3.663l2.933,0.43l-3.133,-3.233c-1.724,-1.778 -4.454,-3.426 -6.066,-3.663l-2.933,-0.43l3.133,3.233m-231.067,-0.622c0,1.358 1.601,3.054 4.75,5.031c8.148,5.117 10.008,3.649 2.508,-1.979c-7.026,-5.273 -7.258,-5.37 -7.258,-3.052m237,-0.611c0,1.192 7.775,6.431 10.5,7.074l3,0.707l-3.5,-3.465c-2.937,-2.908 -10,-5.957 -10,-4.316m-89.454,1.589c-0.278,0.45 2.019,2.494 5.105,4.543c4.401,2.922 5.795,3.435 6.465,2.378c1.171,-1.848 1.093,-2.847 -0.221,-2.847c-0.607,0 -3.296,-1.101 -5.974,-2.446c-2.679,-1.345 -5.097,-2.078 -5.375,-1.628m103.454,3.456c1.925,1.925 4.72,3.796 6.211,4.157l2.711,0.658l-3.239,-3.434c-1.782,-1.889 -4.577,-3.76 -6.211,-4.158l-2.972,-0.723l3.5,3.5m7.5,1.058c3.292,2.878 6.72,4.56 9.296,4.56c3.334,0 -4.079,-5.83 -8.296,-6.524l-4,-0.66l3,2.624m-259.5,0.439c0,1.15 1.179,2.367 3.041,3.138c3.596,1.49 7.959,4.772 7.959,5.988c0,0.473 -2.35,-0.722 -5.223,-2.655c-3.17,-2.133 -5.372,-3.065 -5.604,-2.37c-0.21,0.63 -0.222,1.243 -0.027,1.363c0.195,0.121 3.194,2.165 6.664,4.544c3.471,2.379 6.51,4.126 6.754,3.883c0.897,-0.897 -0.873,-9.77 -1.95,-9.774c-0.613,-0.003 -3.139,-1.351 -5.614,-2.996c-5.272,-3.505 -6,-3.641 -6,-1.121m103.208,0.871c1.23,1.483 4.687,1.61 6.792,0.25c1.63,-1.053 1.322,-1.154 -4.164,-1.361c-2.827,-0.107 -3.427,0.147 -2.628,1.111m167.779,1.091c2.191,1.882 4.888,3.128 7.258,3.354l3.771,0.359l-2.758,-2.736c-1.839,-1.824 -4.258,-2.942 -7.258,-3.354l-4.5,-0.617l3.487,2.994m11.036,1.635c1.362,1.361 4.052,2.775 5.977,3.141l3.5,0.666l-3.888,-3.141c-2.138,-1.728 -4.827,-3.142 -5.977,-3.142c-2.015,0 -2.001,0.088 0.388,2.476m-173.345,-0.773c-1.688,0.437 -1.699,0.561 -0.147,1.696c0.921,0.673 2.99,1.031 4.597,0.796c2.355,-0.346 2.7,-0.698 1.775,-1.812c-1.148,-1.384 -2.805,-1.564 -6.225,-0.68m182.314,2.231c1.921,1.601 4.764,3.097 6.318,3.325l2.825,0.414l-2.818,-2.715c-1.549,-1.493 -4.392,-2.989 -6.317,-3.324l-3.5,-0.61l3.492,2.91m8.355,0.845c1.016,1.151 3.224,2.573 4.908,3.16c3.019,1.052 3.036,1.04 1.248,-0.936c-2.296,-2.537 -0.816,-2.628 1.933,-0.118c1.135,1.037 3.189,2.189 4.564,2.56c2.261,0.61 2.165,0.385 -1,-2.356c-1.974,-1.71 -4.59,-3.006 -6,-2.974c-1.375,0.031 -3.625,-0.277 -5,-0.686c-2.469,-0.734 -2.477,-0.717 -0.653,1.35m-252.347,2.208c1.375,1.144 4.157,2.959 6.182,4.033c2.025,1.073 3.964,2.408 4.309,2.966c0.345,0.558 2.513,1.012 4.818,1.01l4.191,-0.005l-4.5,-3.045c-6.864,-4.646 -10.109,-6.187 -13.97,-6.633l-3.53,-0.408l2.5,2.082m68,-1.091c-2.252,0.627 -2.313,0.768 -0.609,1.423c2.292,0.881 5.863,-0.1 5.065,-1.391c-0.636,-1.029 -0.872,-1.03 -4.456,-0.032m276.158,2.97c-0.637,2.126 -1.131,5.389 -1.098,7.25l0.059,3.384l2.391,-5.081c1.395,-2.965 2.155,-5.985 1.824,-7.25c-0.838,-3.204 -1.873,-2.651 -3.176,1.697m-413.46,-2.129l-4.801,0.377l6.78,4.943l6.78,4.943l13.772,0c7.574,0 13.771,-0.194 13.771,-0.432c0,-0.237 -3.237,-2.712 -7.194,-5.5l-7.193,-5.068l-8.557,0.18c-4.706,0.099 -10.717,0.35 -13.358,0.557m74.537,1.469c1.504,1.29 4.204,3.152 6,4.138l3.265,1.794l-2.735,-2.344c-1.504,-1.29 -4.204,-3.152 -6,-4.138l-3.265,-1.794l2.735,2.344m-8.235,0.044c0,2.101 6.7,6.751 9.697,6.731c2.656,-0.018 2.559,-0.173 -1.853,-2.943c-2.561,-1.609 -4.95,-3.4 -5.309,-3.981c-0.899,-1.455 -2.535,-1.33 -2.535,0.193m-73.598,2.216c0.757,3.017 1.329,3.61 8.239,8.53c3.878,2.763 4.172,2.827 4.646,1.013c0.506,-1.933 -3.546,-5.934 -10.701,-10.567l-2.915,-1.887l0.731,2.911m149.039,0.066c1.068,0.807 3.318,1.454 5,1.436c2.906,-0.03 2.962,-0.105 1.118,-1.5c-1.068,-0.807 -3.318,-1.454 -5,-1.436c-2.906,0.03 -2.962,0.105 -1.118,1.5m-75.108,2.968c0,0.825 0.88,1.5 1.956,1.5c1.625,0 1.745,-0.254 0.711,-1.5c-0.685,-0.825 -1.565,-1.5 -1.956,-1.5c-0.391,0 -0.711,0.675 -0.711,1.5m349.39,2.27c-0.948,2.349 -1.702,5.274 -1.676,6.5c0.03,1.433 0.749,0.444 2.012,-2.77c1.081,-2.75 1.836,-5.675 1.677,-6.5c-0.159,-0.825 -1.065,0.422 -2.013,2.77m-267.223,-1.814c-1.848,0.753 -1.796,0.869 0.693,1.524c2.92,0.768 5.187,-0.056 4.264,-1.549c-0.68,-1.101 -2.213,-1.094 -4.957,0.025m-155.319,4.18c0.277,2.855 1.098,3.73 6.176,6.578c3.221,1.807 5.971,3.286 6.111,3.286c0.14,0 0.04,-1.125 -0.223,-2.5c-0.263,-1.375 -0.835,-2.5 -1.272,-2.5c-0.436,0 -3.115,-1.835 -5.952,-4.078l-5.159,-4.078l0.319,3.292m160.557,-1.444c-2.701,0.704 -1.004,2.308 2.443,2.308c2.61,0 2.879,-0.222 1.819,-1.5c-0.685,-0.825 -1.527,-1.448 -1.872,-1.384c-0.346,0.064 -1.421,0.323 -2.39,0.576m6.262,5.308c4.72,2.584 7.257,2.564 4.139,-0.033c-1.298,-1.082 -3.548,-1.948 -5,-1.925c-2.566,0.041 -2.542,0.095 0.861,1.958m-167,3.229c0,1.887 1.263,2.964 6.5,5.547c5.798,2.859 6.5,3.008 6.5,1.375c0,-1.006 -1.012,-2.325 -2.25,-2.929c-1.238,-0.605 -4.163,-2.278 -6.5,-3.718l-4.25,-2.617l0,2.342m162.499,-1.227c-0.582,0.942 0.94,1.777 6.251,3.432c3.672,1.144 2.646,-1.371 -1.218,-2.985c-4.122,-1.722 -4.239,-1.733 -5.033,-0.447m-2.587,4.162c-1.318,2.463 -1.007,2.8 3.528,3.822c2.943,0.664 3.769,0.491 4.541,-0.95c0.786,-1.469 0.282,-2.022 -3.026,-3.321c-3.784,-1.487 -4.018,-1.466 -5.043,0.449m-159.545,3.513c0.073,1.277 0.558,2.322 1.078,2.322c0.52,0.001 2.095,1.068 3.5,2.372c1.405,1.303 3.793,3.155 5.305,4.115l2.75,1.744l0,-3.048c0,-2.725 -0.676,-3.407 -6.383,-6.438c-6.344,-3.368 -6.383,-3.375 -6.25,-1.067m154.935,2.21c-1.061,1.701 -0.735,2.012 3.297,3.141c4.065,1.138 4.603,1.08 5.866,-0.638c1.266,-1.72 1.106,-1.996 -1.787,-3.064c-4.562,-1.685 -6.043,-1.573 -7.376,0.561m-4.055,4.266c-2.229,2.229 -1.331,3.491 3.229,4.534c3.873,0.887 4.698,0.778 6.132,-0.806c1.559,-1.723 1.5,-1.889 -1.02,-2.848c-5.019,-1.908 -7.094,-2.127 -8.341,-0.88m40.625,1.534c-1.208,1.485 -1.153,1.605 0.46,1c1.007,-0.378 2.271,-0.687 2.809,-0.687c0.537,0 0.699,-0.45 0.359,-1c-0.898,-1.453 -2.067,-1.231 -3.628,0.687m1.128,2.429c-2.221,0.901 -2.309,1.121 -0.788,1.977c2.112,1.189 7.014,0.086 6.499,-1.462c-0.512,-1.536 -2.704,-1.734 -5.711,-0.515m-46.332,2.698c-1.558,1.721 -1.377,1.882 3.51,3.135c4.713,1.208 5.265,1.166 6.48,-0.496c1.196,-1.635 0.956,-1.945 -2.415,-3.119c-4.919,-1.713 -5.63,-1.668 -7.575,0.48m51.576,0.839c-1.967,0.811 -0.397,2.347 2.398,2.347c1.575,0 2.368,-0.47 2.108,-1.25c-0.46,-1.383 -2.568,-1.896 -4.506,-1.097m-166.717,1.727c1.085,0.759 4.335,2.772 7.223,4.474c5.237,3.087 5.25,3.089 5.25,0.804c0,-2.875 -6.312,-6.658 -11.109,-6.658c-3.123,0 -3.21,0.088 -1.364,1.38m8.473,-0.987c0,0.216 0.675,0.652 1.5,0.969c0.825,0.316 1.5,0.139 1.5,-0.393c0,-0.533 -0.675,-0.969 -1.5,-0.969c-0.825,0 -1.5,0.177 -1.5,0.393m-9.534,5.293c0.392,2.098 0.785,3.873 0.873,3.945c0.089,0.073 3.006,1.558 6.482,3.301l6.322,3.169l-0.322,-2.664c-0.247,-2.046 -1.915,-3.696 -7.194,-7.114l-6.874,-4.451l0.713,3.814m112.993,-2.619c-0.805,1.303 -0.914,1.206 4.255,3.812c4.122,2.079 4.236,2.083 5.237,0.213c0.902,-1.687 0.472,-2.101 -3.642,-3.502c-5.539,-1.888 -5.035,-1.843 -5.85,-0.523m60.063,-0.076c-1.913,0.672 -1.904,0.734 0.264,1.894c2.89,1.547 6.087,0.141 3.438,-1.512c-0.948,-0.592 -2.614,-0.763 -3.702,-0.382m5.681,3.863c-2.213,1.403 1.062,3.353 3.881,2.311l2.342,-0.867l-2.147,-1.149c-2.53,-1.354 -2.42,-1.346 -4.076,-0.295m133.579,0.912c1.047,2.575 11.219,11.757 11.212,10.121c-0.005,-1.355 -10.003,-11.887 -11.283,-11.887c-0.356,0 -0.324,0.794 0.071,1.766m7.571,2.566c4.453,4.09 5.399,4.508 11.5,5.081c3.656,0.343 9.346,0.898 12.644,1.233l5.997,0.608l-3.997,-4.447c-4.384,-4.877 -2.38,-4.358 -24.497,-6.347l-6.5,-0.585l4.853,4.457m-204.512,-0.643c2.081,3.862 7.543,7.7 13.311,9.355c2.741,0.786 2.67,0.62 -1.56,-3.61c-2.439,-2.439 -4.942,-4.434 -5.563,-4.434c-0.62,0 -2.486,-0.702 -4.146,-1.561c-2.854,-1.476 -2.965,-1.462 -2.042,0.25m68.897,0.003c-2.943,0.767 -0.861,2.31 3.071,2.276c3.462,-0.03 3.571,-0.123 1.75,-1.5c-1.068,-0.807 -2.193,-1.416 -2.5,-1.352c-0.308,0.064 -1.352,0.323 -2.321,0.576m127.262,3.673c0,1.665 1.553,3.578 5.25,6.467c6.776,5.296 7.403,3.266 1.128,-3.652c-5.237,-5.772 -6.378,-6.276 -6.378,-2.815m-310.82,0.885c0.225,1.582 2.026,3.14 6.067,5.25c3.161,1.65 5.749,3.344 5.75,3.764c0.002,0.421 -2.697,-0.598 -5.997,-2.264c-3.3,-1.666 -6,-2.605 -6,-2.087c0,1.114 5.588,5.836 9.931,8.394l3.069,1.806l-0.012,-5.306l-0.012,-5.307l-5.917,-3.25c-7.033,-3.863 -7.29,-3.9 -6.879,-1m309.82,5.028c0,3.249 9.712,12.41 11.384,10.738c1.471,-1.471 0.121,-3.394 -6.193,-8.817c-5.052,-4.339 -5.191,-4.391 -5.191,-1.921m14.617,1.472c-0.307,2.063 -0.849,6.337 -1.203,9.5l-0.644,5.75l13.471,0l13.472,0l0.668,-7.19c0.49,-5.267 0.328,-7.499 -0.606,-8.346c-1.191,-1.081 -16.362,-3.464 -22.05,-3.464c-2.18,0 -2.63,0.544 -3.108,3.75m-15.253,4.744c-0.756,1.97 3.357,6.183 8.886,9.104c4.203,2.221 3.307,0.383 -2.713,-5.561c-4.748,-4.689 -5.555,-5.153 -6.173,-3.543m-74.364,0.455l-3.5,0.704l2.569,1.08c5.098,2.143 10.891,1.888 6.431,-0.284c-2.904,-1.414 -2.915,-1.444 -0.343,-0.959c1.462,0.276 3.487,0.795 4.5,1.153c1.263,0.446 1.528,0.323 0.843,-0.39c-1.439,-1.5 -6.439,-2.12 -10.5,-1.304m-8,2.262c-1.375,0.597 -3.4,1.248 -4.5,1.448c-4.804,0.874 -4.84,1.637 -0.137,2.893c5.852,1.563 9.143,0.856 5.504,-1.182c-2.244,-1.256 -2.185,-1.293 1.133,-0.717c3.829,0.665 3.637,0.653 6.5,0.424c1.581,-0.127 1.267,-0.562 -1.5,-2.077c-4.064,-2.225 -3.767,-2.191 -7,-0.789m20.677,0.445c-0.361,0.361 -4.823,2.135 -9.917,3.941l-9.26,3.285l12.75,0.059c7.012,0.033 12.75,-0.111 12.75,-0.319c0,-0.208 -0.681,-2.008 -1.513,-4c-1.41,-3.374 -3.261,-4.515 -4.81,-2.966m61.195,2.043c-0.731,4.59 -0.596,4.799 3.277,5.075c2.118,0.151 3.851,0.092 3.851,-0.131c0,-0.847 -7.006,-5.706 -7.128,-4.944m-96.523,1.816l-2.849,1.196l4.227,1.296c2.854,0.875 5.228,1.003 7.311,0.394l3.084,-0.901l-4.462,-1.591c-3.627,-1.292 -4.996,-1.366 -7.311,-0.394m-7.849,2.485c-1.522,0.654 -0.925,0.873 2.5,0.914c3.256,0.04 4.085,-0.213 3,-0.914c-1.78,-1.15 -2.823,-1.15 -5.5,0" fill="#000000" fill-rule="evenodd" id="svg_1"/>
  <path stroke="#000" id="svg_3" d="m-1.02697,102.00063l5.65827,0l0,105.38521l-5.65827,0l0,-105.38521z" opacity="undefined" fill="#000000"/>
  <path id="svg_5" d="m-4.32763,-35.21232l5.65827,0l0,87.23161l-5.65827,0l0,-87.23161z" opacity="undefined" stroke="#000" fill="#000000"/>
  <path stroke="#000" id="svg_6" d="m-1.02697,298.86577l5.65827,0l0,127.64226l-5.65827,0l0,-127.64226z" opacity="undefined" fill="#000000"/>
  <path transform="rotate(-90.0735 188.157 -1.62786)" id="svg_7" d="m185.32748,-45.24366l5.65827,0l0,87.23161l-5.65827,0l0,-87.23161z" opacity="undefined" stroke="#000" fill="#000000"/>
  <path transform="rotate(-89.9972 109.63 1.35344)" stroke="#000" id="svg_8" d="m107.27066,-108.87629l4.71776,0l0,220.45947l-4.71776,0l0,-220.45947z" opacity="undefined" fill="#000000"/>
 </g>

</svg>